<svg xmlns="http://www.w3.org/2000/svg" viewBox="0 0 300 300"><defs><style>.cls-1{isolation:isolate;}.cls-2{fill:#ff6768;mix-blend-mode:multiply;}.cls-3{fill:#6d6d6d;}</style></defs><title>PC_FlowerIcons</title><g class="cls-1"><g id="Layer_1" data-name="Layer 1"><path class="cls-2" d="M103.53,84.07a91.85,91.85,0,0,0-10.84-8.81L75.45,62.61a3,3,0,0,0-2.22-.82,2.71,2.71,0,0,0-1.47,1.14c-7,9-4.07,22.11,1.2,32.17a84.27,84.27,0,0,0,15.58,21c6,5.87,12.8,10.81,19.6,15.72,12.85,9.3,14-3.17,12.07-12.59C117.58,106.29,113.07,93.56,103.53,84.07Z"/><path class="cls-2" d="M158.27,92.78c2.11-13.2,1.08-26.76-1.7-39.84-.57-2.66-2.16-6-4.85-5.53a5.27,5.27,0,0,0-2.51,1.53c-14,12.77-22.62,30.9-24.63,49.65-1,9.28-.88,20.11,2.44,29,4.89,13,13.46,3.68,19-4A72.21,72.21,0,0,0,158.27,92.78Z"/><path class="cls-2" d="M180.33,153.89c5.26,5,10.56,10,14.88,15.75a54.55,54.55,0,0,1,9.65,20.66c.66,3,.83,6.58-1.53,8.5-2.66,2.18-6.61.72-9.69-.81-11-5.49-22.56-11.62-28.72-22.27-2.52-4.35-4-9.23-5.27-14.1-1.43-5.34-3.41-15.57,3-18.85S176.21,150,180.33,153.89Z"/><path class="cls-2" d="M187.75,115.3c4.22-9.91,2.23-21.46-2-31.38-1.69-4-4-8.16-8.07-9.78-2,8-2.76,16.46-6.2,24-3.57,7.8-25.32,30.86-14.4,39.58C167.44,146,184.73,122.38,187.75,115.3Z"/><path class="cls-3" d="M101.21,40.12a4.88,4.88,0,0,0-1.64-1c-2.15-.72-3.94.73-4.51,1.2-6.33,5.14-13.47,12-15,20.7l-3.49-1.62a7.63,7.63,0,0,0-4.93-.91c-2,.43-4.46,2.07-5,7.44-2.18,20.3,3,38.61,14.19,50.23,4.58,4.75,10.09,8.37,15.41,11.87,1.79,1.18,3.59,2.36,5.34,3.58,6.94,4.83,12.1,9.48,14.76,16.53l.07.18a52,52,0,0,1,1.75,29.24,53,53,0,0,0-5.5-6.42l-.57-.59h0c-12.42-12.95-24.93-24.91-41.45-29.15a2.53,2.53,0,0,0-3.11,2.91c1.23,6.65,5.33,12.07,9,16.85,5.29,7,10.75,14.21,17.57,20.15l.3.26c5.65,4.86,13.43,10.73,19.76,10a121.57,121.57,0,0,0-4.09,15.13c-4.07,22.38,4.66,46.91,21.8,61.85.62.54,1.25,1.07,1.9,1.59a2.54,2.54,0,0,0,3.55-.39,2.45,2.45,0,0,0-.39-3.55c-12.75-10.22-20.88-26-22.5-42.32,6.74,2.83,18.13-4.64,21.54-7.06a37.21,37.21,0,0,0,15.24-23.27,2.47,2.47,0,0,0-.87-2.4,2.51,2.51,0,0,0-2.5-.42l-13.19,5c-5.55,2.1-11.28,4.27-16.26,8h0a27.45,27.45,0,0,0-3.13,2.87,132.61,132.61,0,0,1,4.13-14.81c.87-2.7,1.71-5.42,2.49-8.15,4.35-7.85,9.28-15.91,15.59-23a59.34,59.34,0,0,1,20.16-15.14,9.75,9.75,0,0,0,0,1.2,56.24,56.24,0,0,0,29.6,44.4c5.16,2.66,9.63,2.72,12.59.17,3.37-2.9,3.6-7.91.63-14.11A87.2,87.2,0,0,0,191.12,162l20,4.43a47.92,47.92,0,0,0,7.83,1.28,4.66,4.66,0,0,0,5.52-4.26,22.17,22.17,0,0,0-5.85-18.49,46.45,46.45,0,0,0,15-16.38,2.54,2.54,0,0,0-.91-3.33,51.48,51.48,0,0,0-44.48-4,65.83,65.83,0,0,0,3-18.69c.42-10.39-2.22-17.35-7.84-20.63a2.53,2.53,0,0,0-3.78,1.8,90.35,90.35,0,0,1-11,31.49c-.65,1.15-1.34,2.29-2,3.45-3.84,6.42-7.8,13.05-7.71,20.81v.06c-9,3.16-17.79,9.27-25.37,17.77a104.18,104.18,0,0,0-9.27,12.24,55.47,55.47,0,0,0-3-22.22c.46-1.38.86-2.78,1.24-4.18,4.87-1.58,9.46-4.75,14.38-10,18.75-19.94,25.13-50.64,15.87-76.39a5.18,5.18,0,0,0-3-3.43c-2.44-.8-4.38,1-5,1.58-.35.32-.69.66-1,1a22.69,22.69,0,0,0-1-8.87c-1.87-5-5.23-9.26-8.26-12.74-3.79-4.33-6.93-3.8-8.46-3.09a7.18,7.18,0,0,0-2.81,2.61c-.75,1.08-1.44,2.22-2.12,3.37L114.65,31c-2.21-2.17-4.17-1.74-5.08-1.28A4.52,4.52,0,0,0,108,31.1,24.9,24.9,0,0,0,103.39,42Zm31.71,172.55c-6.1,4.33-14.06,7.94-16.82,6.48a3.34,3.34,0,0,1-.88-.65,65.18,65.18,0,0,0,28.31-18.21A33.52,33.52,0,0,1,132.92,212.67Zm-16.56,4.17,1.29-1.26a48.61,48.61,0,0,1,7.64-6.46c2.72-1.7,5.59-3.28,8.37-4.81,3.23-1.77,6.53-3.59,9.68-5.64A64.13,64.13,0,0,1,116.36,216.84Zm20-16.42,4.64-1.76c-2.6,1.61-5.27,3.1-7.9,4.55-2.79,1.54-5.68,3.12-8.42,4.85a48.63,48.63,0,0,0-7.86,6.62c-.66.64-1.33,1.26-2,1.88.49-2.76,4-6.88,6.53-8.81C125.7,204.44,131.09,202.4,136.31,200.42Zm62-51.46c-2,.58-4,1.1-6.12,1.53a17.61,17.61,0,0,1-5.71-.11c1.15-.07,2.29-.17,3.42-.29C192.68,149.8,195.48,149.4,198.27,149Zm-2.47,30.37c.69,1.44,2.76,6.27.63,8.11-1.81,1.55-5.47-.07-7-.84a51.17,51.17,0,0,1-26.89-40.32,8.55,8.55,0,0,1,0-1,52.24,52.24,0,0,1,7.77,4.05,1.07,1.07,0,0,0,.16.14,16.31,16.31,0,0,0,3,2C182.46,158,190.18,167.57,195.8,179.33Zm23.65-16.69h-.22a43,43,0,0,1-7-1.17L186,155.66a1.48,1.48,0,0,0-.21,0l-.31-.31a22.62,22.62,0,0,0,7.72.1,72.24,72.24,0,0,0,21-7.76A16.94,16.94,0,0,1,219.45,162.64ZM205.18,146.5c-5.08.93-10.25,1.79-15.46,2.33a44.39,44.39,0,0,1-9,.2,28.71,28.71,0,0,1-4.76-1.94c-.4-.29-.8-.58-1.21-.86a62.1,62.1,0,0,0,13.87-1.33,135.81,135.81,0,0,0,36.61-12.74C220.39,138.12,213.51,143,205.18,146.5Zm12.61-22.11a51,51,0,0,0-7,1.15A264.94,264.94,0,0,0,181,134.06a35.65,35.65,0,0,0,4.26-6l.08,0A46.22,46.22,0,0,1,217.79,124.39ZM164,139h0c.08-6.18,3.44-11.81,7-17.76.7-1.18,1.41-2.35,2.08-3.53a95.37,95.37,0,0,0,10.77-28.54c1.83,2.9,2.64,7.31,2.4,13.17C185.93,110,184.89,116,183,121c-2.35,6.2-6.25,11.24-11,14.19a45.93,45.93,0,0,1-5,2.58c-.92.43-1.87.88-2.81,1.35Zm5.13,3.39a49.49,49.49,0,0,0,5.54-2.87,27.5,27.5,0,0,0,4.32-3.37,262.55,262.55,0,0,1,32-9.36c3.63-.81,7.4-1.5,11-1.09a43.45,43.45,0,0,1,6,2.63c-.31.5-.65,1-1,1.48a134.64,134.64,0,0,1-38.61,13.87,56.26,56.26,0,0,1-15.8,1.15c-1.27-.78-2.55-1.55-3.86-2.23ZM108.36,174h0l.6.61c1.85,1.91,6.53,6.76,6.75,9.67a2.28,2.28,0,0,0-.1.82c-4.17-.07-8-2.85-11.64-6l-.26-.23c-6.18-5.43-12.19-11.22-17.86-17.19-1.84-1.94-3.58-4.15-5.42-6.49a88,88,0,0,0-6.32-7.43C87.1,152.67,97.76,163,108.36,174Zm-10.79,3.7c-6.48-5.67-11.93-12.75-17.14-19.63-1.52-2-3.1-4.14-4.49-6.39,1.19,1.41,2.36,2.86,3.5,4.32,1.78,2.26,3.61,4.6,5.5,6.58,5.7,6,11.73,11.81,17.93,17.27l.27.23c3.45,3,7.16,5.68,11.24,6.19C112.53,187.08,108,186.72,97.57,177.72ZM114.88,58.9c3,2.66,6.14,5.41,7.87,8.88,3,6.11,1.46,13.62-.6,21.44Q121,92.6,120,96.07c-.78-2-1.64-4-2.6-6-.71-1.45-1.45-2.79-2.2-4.07-.19-7.34-3.4-14.51-6.7-20.71-.89-1.68-1.8-3.27-2.69-4.81-2.89-5-5.4-9.49-6.41-15.22Zm32.1.89c.29,4.22.45,8.48.47,12.71a99.6,99.6,0,0,1-2.2,23.24,66.82,66.82,0,0,1-18.85,32.87c6.15-9.88,9.95-24,12.64-35.63.74-3.21,1.44-6.37,2.13-9.5,1.77-8.07,3.46-15.74,5.76-23.65Zm-7,23.42c-.69,3.12-1.38,6.28-2.12,9.49-2.72,11.79-6.58,26.06-12.84,35.8A76.54,76.54,0,0,0,123.1,106a0,0,0,0,1,0,0A80.08,80.08,0,0,1,127,90.77s0,0,0,0l0-.07a81.13,81.13,0,0,1,18.12-29C143.12,68.81,141.55,75.85,139.93,83.21ZM97,69.07a21.82,21.82,0,0,1-1.1-6.31c-.45-6.39-.6-12.53,2.28-17.26,1.06,6,3.75,10.68,6.59,15.64.88,1.53,1.78,3.1,2.66,4.77,2.89,5.42,5.72,11.58,6.43,17.89A40.48,40.48,0,0,0,109,77.7,48.74,48.74,0,0,0,97,69.07Zm-.27-23.58c-2.69,4.93-2.54,11-2.09,17.36a27.85,27.85,0,0,0,.76,5.38C93.07,67.06,90.77,66,88.55,65l-3.74-1.74C85.45,56.18,91.18,50.17,96.71,45.49Zm7.68,82c-1.79-1.25-3.62-2.45-5.45-3.66-5.33-3.51-10.36-6.82-14.55-11.16C74.23,102.09,69.56,85.26,71.58,66.45c.24-2.17.84-3,1.1-3.05a4.89,4.89,0,0,1,1.73.56l12,5.58c6,2.79,12.21,5.66,17.15,10,.63.55,1.24,1.12,1.83,1.73a42.46,42.46,0,0,1,7.49,11.08,71.21,71.21,0,0,1,5.15,48.16C114.76,135.35,110.1,131.42,104.39,127.45Zm28.89,2.21a34.8,34.8,0,0,1-9.36,7.44q.48-2.64.76-5.3A68,68,0,0,0,146.47,96c1.57-6.62,2.28-14.1,2.24-23.52,0-4.61-.24-9.24-.58-13.83h0C156.67,82.63,150.71,111.14,133.28,129.66ZM130.7,37.6c2.73,3.13,5.74,6.9,7.32,11.16,1.37,3.69.8,10.78-1.12,14.47a85,85,0,0,0-7.49,10.61,21.62,21.62,0,0,0-2.14-8.3c-2.16-4.37-5.82-7.59-9-10.43l-2.67-2.35c4-2.81,6.41-7,8.79-11.12,1-1.7,2-3.39,3-5a3.23,3.23,0,0,1,.77-.9C128.33,35.68,129.27,36,130.7,37.6ZM108.13,46a20.65,20.65,0,0,1,3.27-11.11l7.07,6.76c-1.93,3.18-4,6-6.87,7.65l-3.51-3.1A1.42,1.42,0,0,0,108.13,46Z"/></g></g></svg>