<svg viewBox="0 0 300 300" xmlns="http://www.w3.org/2000/svg"><g fill="#ff6768"><path d="m59.17 195.9c2.39 3.14 6.49 4.42 10.4 5a41.74 41.74 0 0 0 16.72-1.06c5.78-1.57 11.57-4.77 14.11-10.2.92-2 1.33-4.41.17-6.25a7.62 7.62 0 0 0 -3.2-2.53c-8.26-4.11-18-4.23-27.07-2.55a17.12 17.12 0 0 0 -5.82 1.91c-4.55 2.69-8.97 10.88-5.31 15.68z"/><path d="m79.08 156.18a18.61 18.61 0 0 0 3.31 7.57 33.34 33.34 0 0 0 18.46 13.1c1.93.54 4.32.77 5.65-.74s.77-4 0-5.93a78 78 0 0 0 -5.5-12.37c-2.11-3.64-4.81-7.09-8.47-9.17-6.82-3.89-14.83-1.39-13.45 7.54z"/><path d="m193.69 139.21c2.41 4.07 6.05 7.28 9.92 10a67.76 67.76 0 0 0 12.18 6.84c4.3 1.86 9.48 3.21 13.47.76 3.82-2.36 5.07-7.63 3.8-11.93s-4.52-7.74-8.08-10.47a46.4 46.4 0 0 0 -25-9.4c-3-.2-7.32-.94-8.7 2.29-1.5 3.47.72 8.96 2.41 11.91z"/><path d="m197.64 118.33c3.63 3.14 8.83 3.84 13.59 3.24a30.39 30.39 0 0 0 23.47-17.32 11.74 11.74 0 0 0 1.3-6.25c-.49-3.48-3.53-6.16-6.85-7.3-4.43-1.53-9.38-.82-13.7 1-8.34 3.4-29.96 16.12-17.81 26.63z"/></g><path d="m206.64 68.17a2.22 2.22 0 0 0 -4.17-1.49 28.1 28.1 0 0 1 -3.57 2.45c-1 .6-1.81 1.14-2.2 1.45a78.59 78.59 0 0 0 -6.4 5.88 75.58 75.58 0 0 0 -10.47 13.54c-.28.45-.62 1-1 1.52-1.94 2.91-4.59 6.87-3.65 10.46a6 6 0 0 0 4.14 4.63c3.19.92 7-.92 9.45-3.16 5-4.64 10.68-9.9 13.63-16.88.22-.53.43-1.08.63-1.62a60.11 60.11 0 0 0 2.3-10c.39-2.42.76-4.61 1.31-6.78z" fill="#6d6d6d"/><path d="m174.52 11.78c-1.17 2-8.34 19.72-4.51 25.61a4.77 4.77 0 0 0 4.82 2.11c3.91-.47 6.65-6.51 8.91-12.14l.33-.82c.49-1.2 1-2.41 1.38-3.62 1.32-3.74 2.35-7.49 3.29-10.9 1.44-5.22-1-7-2.11-7.58a5.37 5.37 0 0 0 -4.28 0c-2.97 1.1-5.53 3.5-7.83 7.34z" fill="#6d6d6d"/><path d="m186.85 33.82v.08c-1.47 4.16-4.33 14.08-1 20.8-1.6 1.45-3.29 2.86-5 4.25-1 .86-2 1.72-3 2.57a58.6 58.6 0 0 0 -7.38-22.52 2 2 0 0 0 -.43-.48 29.09 29.09 0 0 0 -4-5.11 41.36 41.36 0 0 0 -9.23-7.89 29.88 29.88 0 0 0 -19.37-4.52c-3.49.46-4.51 2.34-4.84 3.37a5.13 5.13 0 0 0 .15 3.06c2.5 8.31 11 14.77 20.65 15.72a54.44 54.44 0 0 0 6 .16 37 37 0 0 1 7.14.37 6 6 0 0 0 1.48.08c10 19.73 5.6 43.23.24 59.26.21-4.52-6.35-12.44-6.41-12.52-5-5.76-13-7.5-18.83-8.77a2.22 2.22 0 0 0 -2.18 3.58c1.52 1.85 2.86 3.82 4.28 5.9a68.17 68.17 0 0 0 5.88 7.79c.1.11 10.66 11.17 16 6.79a3.84 3.84 0 0 0 .54-.58c-.73 2.07-1.46 4-2.17 5.74-2.83 7-6.12 13.36-9.6 20.13-5.21 10.15-10.89 21.22-15.88 36.08.7-12.51.49-25.07-1.84-37.43-2.76-14.7-8.5-28.72-15.11-41.9 1.3 1.19 3.24 1.43 5.77.65 7.2-2.2 11.34-9 13.54-14.41.88-2.14 1.61-4.35 2.35-6.55a54.73 54.73 0 0 1 4.24-10.39 2.53 2.53 0 0 0 .18-.37 2.22 2.22 0 0 0 -2.22-3c-4.57.27-9.09 2.6-13.46 6.95a42 42 0 0 0 -9.48 14.62l-.23.58c-1.32 3.4-2.44 6.67-2.06 9.18-3.78-7.18-7.71-14.09-11.57-20.79 1.08-.66 2.6-2.13 4.64-5.52a18.46 18.46 0 0 0 1.63-3.57c.29-.82.54-1.63.77-2.44 2.75-9.64 2.63-17.31-.35-23.44a4.39 4.39 0 0 0 -1.43-1.78c-1.89-1.29-4.31-.48-6 2-4.06 6-6.41 11.15-7.37 16.32a25.4 25.4 0 0 0 1 13.29 40.53 40.53 0 0 0 -5.28-4c-8.49-5.22-19-5-27.51-4.84a2.22 2.22 0 0 0 -2 1.26 2.19 2.19 0 0 0 .34 2.42c.84 1.09 1.63 2.23 2.42 3.36a54.27 54.27 0 0 0 3.89 5.18c4.17 4.69 10.25 8.32 17.56 10.46l1 .3c5.68 1.76 12 3.42 15.13.92a4.42 4.42 0 0 0 1.23-1.65c8.29 14.69 16.62 30.65 21.45 47.48a124.55 124.55 0 0 1 -19.2-8.78l-.13-.13a26.78 26.78 0 0 0 -2.55-2.16 4.38 4.38 0 0 0 4.2-1.76 4.15 4.15 0 0 0 .52-1c1.9-5.37-4.64-16.22-5.38-17.15-3-3.88-6.56-6-10.16-6a4.6 4.6 0 0 0 -2.54.58c-1.85 1.08-2.48 3.32-1.7 6.16 0 .13 2.72 9.71 7.91 15.3a36.92 36.92 0 0 0 -8.44-2.14c-5.67-.76-11.85-.42-19.46 1.06-3.86.75-5 2.67-5.24 4.16a5.51 5.51 0 0 0 1.13 4 23.19 23.19 0 0 0 12 8.68 40.46 40.46 0 0 0 14.2 1.73 21.67 21.67 0 0 0 9.12-1.87 11.15 11.15 0 0 0 5.13-5.12 129.82 129.82 0 0 0 21.44 9.51 2.39 2.39 0 0 0 .53.06c.43 1.79.83 3.59 1.17 5.39a127.06 127.06 0 0 1 2 20c-2.72-3.5-8.26-6.08-8.33-6.11a13.5 13.5 0 0 0 -6.33-1.33 17.71 17.71 0 0 0 -5.47 1.47l-4.67 1.83a2.23 2.23 0 0 0 -1.06 3.27c1.44 2.22 3.06 4.74 5.59 6.45 3 2.07 6.68 2.45 10.16 2.55.41 0 1 .06 1.56.11 3.41.3 6.16.43 7.93-.82a6.11 6.11 0 0 0 .66-.53c-.14 11.92-1.41 23.91-2.74 35.7a142.07 142.07 0 0 0 -24.06-11c1.87-4.06.88-9-.27-13.11s-2.36-8-4.73-11.43c-2.84-4.13-7.05-6.74-11.25-7a9 9 0 0 0 -6.5 2 8.67 8.67 0 0 0 -2.63 4.38c-1.1 4.28.33 9.18 4.14 14.16a42.92 42.92 0 0 0 4.79 5.29c-6.2-1.1-12.57-1.16-18.61 1a15 15 0 0 0 -7.19 4.81 9 9 0 0 0 -1.13 9.41c1.57 3 4.83 4.67 9.7 5.07a39.48 39.48 0 0 0 30.46-11.11 137.72 137.72 0 0 1 26.33 12 2.83 2.83 0 0 0 .41.14c-.57 5-1.14 10.09-1.61 15.12-.3 3.18-.57 6.47-.78 9.84a29.21 29.21 0 0 0 -3.82-3.94 40.17 40.17 0 0 0 -13.82-7.72c-15.16-4.85-31.3 0-42.12 4a2.31 2.31 0 0 0 -1.38 1.53 2.26 2.26 0 0 0 .49 2c6.32 7.21 12.85 14.66 21.5 19.63a51.7 51.7 0 0 0 26.36 6.56c5.26-.05 9.49-1.07 12.45-2.9.58 18 4.12 36.9 14.64 53.06a2.23 2.23 0 0 0 3.07.66 2.16 2.16 0 0 0 .88-1.13 2.23 2.23 0 0 0 -.23-1.95c-11-16.88-14-37.09-14-56a5.29 5.29 0 0 0 .2-.71 11.6 11.6 0 0 0 -.11-5.24c.15-5.26.49-10.36.92-15.23 4.14 2.17 10.94.59 13.06 0a21.54 21.54 0 0 0 6.57-3.37 47 47 0 0 0 9.66-9 59.42 59.42 0 0 0 9.11-17.48c1.28-3.63 2.37-7.33 3.45-11a151.88 151.88 0 0 1 5.25-15.64 2.28 2.28 0 0 0 -.66-2.6 2.22 2.22 0 0 0 -2.67-.07 106.08 106.08 0 0 1 -12.49 7.29c-6.72 3.51-13.67 7.15-19.08 12.85a48.75 48.75 0 0 0 -7.7 11.16c-.53 1-1.07 2.07-1.61 3.15 5.25-23.85 12.48-39.45 19.26-52.79a1.55 1.55 0 0 0 .29-.14 75.52 75.52 0 0 1 37.81-14.71c-.59 2.64.9 5.48 2 7.43l.21.4c4.34 8.16 11.85 13.1 17.39 15.82 2.91 1.42 7.31 3.24 11.94 2.67a9.63 9.63 0 0 0 4.79-1.86 7.84 7.84 0 0 0 2.56-3.59 11.91 11.91 0 0 0 -.9-9.12c-2.49-4.78-6.93-7.59-10.21-9.1a52.23 52.23 0 0 0 -10.69-3.29 42 42 0 0 0 13.55-6c4-2.68 6.61-5.55 8.11-8.78 2-4.36 1.67-9.27-.84-12.63a10.29 10.29 0 0 0 -.83-.92.53.53 0 0 0 -.52-.51c-3.16-2.82-8.15-3.8-12.84-2.36s-8.23 4.57-11.48 7.79a47.8 47.8 0 0 0 -8.35 10.36 24.88 24.88 0 0 0 -3.14 9.27 2.5 2.5 0 0 0 -.47 0 80.1 80.1 0 0 0 -34.25 11.3c2.91-5.68 5.66-11.22 8.1-17.24.74-1.83 1.52-3.85 2.29-6 3.7-10.64 7.26-25.02 6.56-39.64a1.73 1.73 0 0 0 .34-.21c1.6-1.47 3.33-2.91 5.08-4.38s3.26-2.72 4.84-4.14a12.41 12.41 0 0 0 6.23 2.65 17.3 17.3 0 0 0 16.71-7.66 4.71 4.71 0 0 0 .54-1.07 3.28 3.28 0 0 0 .21-1.22 3.81 3.81 0 0 0 -1.25-2.71c-1.41-1.44-4.17-3-9.32-2a31.93 31.93 0 0 0 -4.1 1c.23-.44.44-.89.64-1.35 2.21-4.91 2.97-10.45 3.58-14.91.18-1.29.6-4.33-1.62-6.18a5.42 5.42 0 0 0 -5.1-.79c-4.76 1.43-6.97 6.27-8.23 9.79zm-88.42 54.76c-.23-.84-.16-1.29-.11-1.14 2.8 0 5.21 2.39 6.74 4.34 1.82 2.31 5.69 11.39 4.86 12.8a2.77 2.77 0 0 1 -1.34-.21c-4.35-1.37-8.58-10.22-10.15-15.79zm-5.43 18.72a29.1 29.1 0 0 1 13.75 5.4c-1.53 1.07-3.79 1.63-6.86 1.7a55.57 55.57 0 0 1 -25.89-5.8 7 7 0 0 1 1-.28c7.13-1.38 12.86-1.7 18-1.02zm3 10.83a36.27 36.27 0 0 1 -12.66-1.52 18.71 18.71 0 0 1 -9.63-6.86 56.91 56.91 0 0 0 26.29 5.76 16.17 16.17 0 0 0 6.07-1.13 7 7 0 0 1 -2.68 2.34 17.67 17.67 0 0 1 -7.31 1.41zm-3.61 36.87c2.85.16 5.79 2.06 7.86 5.07s3.07 6.43 4.11 10.11c.87 3.12 1.66 6.83.68 9.58l-.69-.36a142.18 142.18 0 0 1 -16-22.49 3.52 3.52 0 0 1 .77-1 4.67 4.67 0 0 1 3.27-.91zm-1.19 13.51c-2-2.67-4.26-6.6-3.39-10.25a143.42 143.42 0 0 0 13.82 19.64 38.17 38.17 0 0 1 -10.43-9.39zm-21.01 16.49a10.73 10.73 0 0 1 5.15-3.33c6.48-2.31 13.63-1.61 20.48.1-9.19.15-18.29 2.77-26.59 5.28a4 4 0 0 1 .15-.57 5.25 5.25 0 0 1 .81-1.48zm5.41 7.36c-2.25-.18-5.13-.81-6.14-2.72a3.22 3.22 0 0 1 -.35-1.4c9.68-2.92 20.48-6.08 31.15-5.22l1.34.41a35 35 0 0 1 -26 8.92zm141.22-49.66c-4.95-2.43-11.64-6.8-15.42-13.91l-.22-.42a15.51 15.51 0 0 1 -1.55-3.64c1.88.88 3.79 1.73 5.7 2.58 7.1 3.14 14.44 6.39 20.22 11.6a10.35 10.35 0 0 1 3.41 5s-.06.07-.1.1a5.29 5.29 0 0 1 -2.6.94c-2.63.32-5.62-.39-9.44-2.26zm4.37-13c2.66 1.22 6.22 3.45 8.13 7.12a7.13 7.13 0 0 1 .46 6 12.39 12.39 0 0 0 -3.48-4.74c-5.92-5.32-13.35-8.61-20.53-11.79-1.73-.76-3.46-1.54-5.17-2.34a37.17 37.17 0 0 1 6.12 1.56c1.2.37 2.26.7 3 .86a54.79 54.79 0 0 1 11.47 3.34zm8.81-24c-1.16 2.48-3.31 4.76-6.58 7a37.87 37.87 0 0 1 -18.54 6.37 12 12 0 0 1 -1.67 0h-.46l1.4-.61c6.64-2.9 13.51-5.9 19.5-10.28a24.34 24.34 0 0 0 7.12-7.66 9.39 9.39 0 0 1 -.77 5.23zm-27 5.74a44 44 0 0 1 7.6-9.38c2.84-2.81 6-5.57 9.66-6.7 3.1-1 7.3-.49 9.34 2.24a6 6 0 0 1 .69 1.27c-1.51 3.47-4.59 6.34-7.32 8.34-5.89 4.3-12.71 7.28-19.3 10.15l-3.22 1.4a20.8 20.8 0 0 1 2.55-7.27zm4.54-60.37a12.73 12.73 0 0 1 -12.12 5.35 8.31 8.31 0 0 1 -3.65-1.36l.13-.13a27 27 0 0 1 10.58-4.39c1.65-.25 3.77-.38 5.09.58zm-10.14-20.65c-.6 4.38-1.3 9.32-3.2 13.7a26.17 26.17 0 0 1 -4.94 7.21c-1.67-5.44.78-13.4 1.78-16 1.47-4.15 3.15-6.37 5.3-7a1.6 1.6 0 0 1 1 0s.32.25.06 2.09z" fill="#6d6d6d"/></svg>