<svg xmlns="http://www.w3.org/2000/svg" viewBox="0 0 300 300"><defs><style>.cls-1{isolation:isolate;}.cls-2{fill:#ff6768;mix-blend-mode:multiply;}.cls-3{fill:#6d6d6d;}</style></defs><title>PC_FlowerIcons</title><g class="cls-1"><g id="Layer_1" data-name="Layer 1"><path class="cls-2" d="M125.07,126.52a16.71,16.71,0,0,0-1.7,6.83c0,4.57,2.74,8.68,5.84,12,4.38,4.75,9.84,8.67,16.07,10.37s13.28,1,18.53-2.79,8.27-10.75,6.57-17a20.85,20.85,0,0,0-4.84-8.16,40.63,40.63,0,0,0-23.16-12.75c-3.15-.56-6.54-1.26-9.37.59C129.45,118,126.75,122.75,125.07,126.52Z"/><path class="cls-2" d="M95.54,130.86c2,.69,4.26,1.2,6.27.49a6.21,6.21,0,0,0,3.94-5.79c0-4.71-6.46-9.79-11-7.48C89.32,120.79,90.19,129,95.54,130.86Z"/><path class="cls-2" d="M136.18,79.29c-1.05,1.41-2.1,3-2.07,4.71a5.72,5.72,0,0,0,1,3A7.32,7.32,0,0,0,140,90.21a5.5,5.5,0,0,0,5.27-2.13,9.26,9.26,0,0,0,.41-7.85C143.43,75.91,139,75.55,136.18,79.29Z"/><path class="cls-2" d="M192,98.48a6.77,6.77,0,0,0-3.15,6.41,6.57,6.57,0,0,0,4.6,5.42,8.71,8.71,0,0,0,5.76-.63,7.87,7.87,0,0,0,3.57-2.75C207.16,100.2,197.15,95.31,192,98.48Z"/><path class="cls-2" d="M208.57,128.18c-1.8,1.3-2.37,3.69-2.82,5.87a7.76,7.76,0,0,0-.18,3.21A5.4,5.4,0,0,0,207,139.7a8,8,0,0,0,6.32,2.59C223.89,141.44,219.24,120.5,208.57,128.18Z"/><path class="cls-2" d="M185.52,167.76a8.32,8.32,0,0,0,.27,9.3,10.52,10.52,0,0,0,6.08,3.59,6.84,6.84,0,0,0,5-.4c1.9-1.13,2.64-3.51,2.95-5.7C201,166,191.15,159,185.52,167.76Z"/><path class="cls-2" d="M152.11,185.31a5.84,5.84,0,0,0-1.2,3.77,5.3,5.3,0,0,0,2.83,4,10.64,10.64,0,0,0,4.91,1.1,7.44,7.44,0,0,0,5.24-1.45c2-1.78,1.87-5.13.21-7.19C160.92,181.55,155,181.11,152.11,185.31Z"/><path class="cls-2" d="M119.32,178.79a7.24,7.24,0,0,0,3.41,6.58,11.44,11.44,0,0,0,6.46,1.24,3.89,3.89,0,0,0,1.72-.37,4,4,0,0,0,1.25-1.35,10.6,10.6,0,0,0,1.41-2.71,7.06,7.06,0,0,0-2.67-7.29C126.46,171.37,119.8,172.2,119.32,178.79Z"/><path class="cls-2" d="M91,151a6.28,6.28,0,0,0-.2,3.56,6.19,6.19,0,0,0,1.47,2.36,12.34,12.34,0,0,0,8.28,3.85,4.79,4.79,0,0,0,2.13-.28,4.19,4.19,0,0,0,1.84-1.77,7.59,7.59,0,0,0-.29-8C101.16,146.25,92.76,144.93,91,151Z"/><path class="cls-2" d="M60.65,127.94c-3,1.33-6.3,2-9.18,3.64-.77.42-1.6,1.07-1.58,1.94a2.36,2.36,0,0,0,.44,1.16c2.48,3.93,7.38,5.78,12,5.83a21.07,21.07,0,0,0,19.43-12.79,19.7,19.7,0,0,0,.37-13.08c-.67-2.12-3.81-9.92-7.1-6.88-1,.95-1.06,4.45-1.53,5.82a24.8,24.8,0,0,1-2.85,5.77A23.85,23.85,0,0,1,60.65,127.94Z"/><path class="cls-2" d="M95.43,176c5.12,6.13,5.28,14.87,5.19,22.86,4.55-3.26,5.85-9.43,6-15a24.82,24.82,0,0,0-.93-8.19,17,17,0,0,0-12.21-11c-4.86-1.12-11.37-.18-15.17,3.28.87,1.83,7,1.76,9.15,2.55A18.89,18.89,0,0,1,95.43,176Z"/><path class="cls-2" d="M116.79,210.09a7.76,7.76,0,0,1,6.18.69,18.11,18.11,0,0,1,4.83,4.16c2,2.25,3.83,4.78,4.38,7.72.46,2.45,0,5.26,1.63,7.19a1.69,1.69,0,0,0,.68.56c1.17.45,2-1.15,2.47-2.31a8.37,8.37,0,0,1,8.59-4.88A27.89,27.89,0,0,0,140.46,209a9.79,9.79,0,0,0-9.5-4.81,28.74,28.74,0,0,0-9.32,1.68C119.71,206.53,118.24,208.64,116.79,210.09Z"/><path class="cls-2" d="M103.48,57.61a1.88,1.88,0,0,1-.25-1c.16-1,1.59-1,2.63-1.05a5.36,5.36,0,0,0,4.5-8.08c3.33,1.57,5.41,4.91,7.2,8.12,1.67,3,3.28,6.16,3.56,9.58.34,3.93-1.12,7.79-2.92,11.3-1.16,2.26-2.58,4.53-4.79,5.79-4.08,2.3-16.62-1-12.92-7.17,1.67-2.76,4.14-3.64,4.79-7.27C105.91,64.31,104.91,60.75,103.48,57.61Z"/><path class="cls-2" d="M151.24,54.59a14.72,14.72,0,0,0,8.39-7,14.91,14.91,0,0,1,1.68-3,2.88,2.88,0,0,1,3.06-1c1.14.45,1.62,1.8,1.79,3a13.89,13.89,0,0,1-4.55,12.22c-3.76,3.26-9,4.22-13.93,4.47-3.41.16-12.86-2.15-11-7.78.88-2.68,3.57-.77,5.56-.4A18.3,18.3,0,0,0,151.24,54.59Z"/><path class="cls-2" d="M227.19,92.24a12.85,12.85,0,0,0,6.54,6.08,20.39,20.39,0,0,0,8.92,1.47,7.68,7.68,0,0,1,3.38.32,2.23,2.23,0,0,1,1.35,2.75,3,3,0,0,1-1.21,1.15c-5.63,3.39-12.84,3-19.08,1a10.88,10.88,0,0,1-5-2.91c-2.06-2.39-2-5.88-1.9-9,.11-2.67.4-8.25,3.7-9.25C227.31,82.72,226,89.75,227.19,92.24Z"/><path class="cls-2" d="M221.56,156.81c-4,2.39-6.94,7.3-5.6,11.79.31,1,.82,2,1.21,3a25.26,25.26,0,0,1,1.1,4.27,2.7,2.7,0,0,1-.35,2.52c-.93.88-2.42.05-3.47-.7a36.53,36.53,0,0,1-4.22-3.05c-3.55-3.35-4.25-9.09-2.24-13.54s6.36-7.58,11.07-8.85c2.13-.58,9-2.22,10.25.52C230.3,154.93,223.38,155.74,221.56,156.81Z"/><path class="cls-3" d="M74.61,133.82A13.47,13.47,0,0,1,67.24,136a21.2,21.2,0,0,1-11.4-3,2.24,2.24,0,0,0-2.29,3.86,26.19,26.19,0,0,0,13.15,3.59h.67a17.54,17.54,0,0,0,9.87-3,15.75,15.75,0,0,0,4.91-6.1,54.16,54.16,0,0,0,31.1,9.82,52.08,52.08,0,0,0,13.49-1.75,2.89,2.89,0,0,0,.43-.22,18.73,18.73,0,0,0,1.23,2.6,63.59,63.59,0,0,1-21,6.91c-.08-.18-.14-.37-.23-.54a7.16,7.16,0,0,0-5.18-3.94c-3.66-.56-6.71,2.16-8,4.91a7.68,7.68,0,0,0-.82,3.3,6.93,6.93,0,0,0,3,5.5,9.4,9.4,0,0,0,5.44,1.6,6.3,6.3,0,0,0,5.6-2.93,7.46,7.46,0,0,0,1-3.49,68.52,68.52,0,0,0,22.92-7.72c.43.43.88.83,1.33,1.22a45.68,45.68,0,0,1-24.54,22.47,2.15,2.15,0,0,0-.74-.33c-4-4.62-10.86-6.81-18.8-5.79a37.38,37.38,0,0,0-13,4.13,2.24,2.24,0,0,0,2.11,4A33.06,33.06,0,0,1,89,167.41a21.49,21.49,0,0,1,10,1,29.79,29.79,0,0,0-18.5,8.92,2.24,2.24,0,0,0,3.26,3.08,25.28,25.28,0,0,1,19.12-7.67,49.3,49.3,0,0,1-19,16.9,2.25,2.25,0,0,0,1,4.26,2.27,2.27,0,0,0,1-.23A53.65,53.65,0,0,0,106,176a16.65,16.65,0,0,1-.75,9.38c-1.75,4.66-5.06,8.71-8.26,12.62a2.23,2.23,0,0,0,.31,3.15,2.25,2.25,0,0,0,1.42.51,2.22,2.22,0,0,0,1.73-.82c3.27-4,7-8.53,9-13.89a19.81,19.81,0,0,0,.37-13.83,50.17,50.17,0,0,0,26.36-23.9c.74.45,1.48.85,2.18,1.22a3.27,3.27,0,0,0-.14.33A52,52,0,0,1,131,168.75l-.19-.06a6.3,6.3,0,0,0-5.61,1.14c-2.47,2.09-2.48,5.65-1.43,8.08a6.76,6.76,0,0,0,1.69,2.45,5.86,5.86,0,0,0,3.88,1.41,6.39,6.39,0,0,0,1.49-.18,8,8,0,0,0,4.13-2.59,5.58,5.58,0,0,0,1.34-5.45,6.46,6.46,0,0,0-1.47-2.48,56.68,56.68,0,0,0,7.69-18.69q.87.36,1.71.66c.56,16.17-.21,34.43-8.66,49.57a2.26,2.26,0,0,0-.81.17c-5.71-1.62-12.26-.11-20,4.71a2.24,2.24,0,1,0,2.37,3.8c4.64-2.89,8.66-4.41,12.2-4.63A27.34,27.34,0,0,0,121,222.24a2.24,2.24,0,0,0,4.43.68,22.82,22.82,0,0,1,8.83-14.6,25.49,25.49,0,0,1,.36,9.45A76.11,76.11,0,0,1,131.22,230a2.24,2.24,0,0,0,1.41,2.84,2.45,2.45,0,0,0,.71.11,2.24,2.24,0,0,0,2.12-1.52,79.85,79.85,0,0,0,3.55-13,29.32,29.32,0,0,0,.14-7.78,15,15,0,0,1,2.89,4.69,18.58,18.58,0,0,1,.27,12.13,2.24,2.24,0,0,0,1.45,2.82,2.3,2.3,0,0,0,.68.11,2.24,2.24,0,0,0,2.13-1.56,23.16,23.16,0,0,0-.35-15.12,19.08,19.08,0,0,0-6.87-8.82c8.8-15.65,9.83-34.1,9.36-50.58a23.85,23.85,0,0,0,2.56.41,68.15,68.15,0,0,1,4.24,25.16,6.31,6.31,0,0,0-.72.18,7.43,7.43,0,0,0-4.93,4.67c-1.19,3.66,1.09,7.29,3.72,9.11a8,8,0,0,0,3.25,1.41,6.19,6.19,0,0,0,1,.08,7.26,7.26,0,0,0,5.12-2.22,9.75,9.75,0,0,0,2.58-5.33,6.56,6.56,0,0,0-2.05-6.29,7.79,7.79,0,0,0-3.54-1.69,72.84,72.84,0,0,0-4-25c.45-.05.89-.14,1.33-.22a195.7,195.7,0,0,1,21.09,105.54,2.25,2.25,0,0,0,2.05,2.42h.19a2.25,2.25,0,0,0,2.23-2.05,200.37,200.37,0,0,0-21.26-107.33c.28-.13.57-.25.84-.4a17.14,17.14,0,0,0,4.32-3.58,68.22,68.22,0,0,1,16.53,17.36c-.16.19-.33.36-.48.55a7.46,7.46,0,0,0-1.41,6.66c1.11,3.69,5,5.37,8.27,5.38a8,8,0,0,0,3.45-.69,7.14,7.14,0,0,0,3.86-5.27,9.72,9.72,0,0,0-.91-5.85,6.57,6.57,0,0,0-5.26-4A7.77,7.77,0,0,0,187,164a72.79,72.79,0,0,0-17.59-18.41,35.11,35.11,0,0,0,2.63-6,171.79,171.79,0,0,1,35,14.77,15.36,15.36,0,0,0-1.29,2.19,18.48,18.48,0,0,0-1.36,11.07,12.53,12.53,0,0,0,1.37,4.09,15,15,0,0,0,2.61,3.27,54.75,54.75,0,0,0,5.92,5.15,2.22,2.22,0,0,0,1.34.44,2.24,2.24,0,0,0,1.34-4,49.63,49.63,0,0,1-5.43-4.72,11.21,11.21,0,0,1-1.87-2.29,8.5,8.5,0,0,1-.87-2.69,14.83,14.83,0,0,1,.18-6,27.76,27.76,0,0,0,17.37,13.12,2.31,2.31,0,0,0,.52.06,2.24,2.24,0,0,0,.53-4.41,23.23,23.23,0,0,1-15.07-11.92,2.85,2.85,0,0,1-.41-1.15,2.14,2.14,0,0,0,.12-.79,2,2,0,0,0,.54.19,36.68,36.68,0,0,1,16.2,6.16,2.19,2.19,0,0,0,1.27.39,2.24,2.24,0,0,0,1.27-4.08,41.63,41.63,0,0,0-12.91-5.91,20.75,20.75,0,0,1,7.83.38,13.24,13.24,0,0,1,6.39,3.65,2.24,2.24,0,1,0,3.27-3.06,17.76,17.76,0,0,0-8.53-4.93,25.68,25.68,0,0,0-9.51-.49,18.21,18.21,0,0,0-3.66.79,13.74,13.74,0,0,0-4.09,2.24,2.12,2.12,0,0,0-.51-.43,175.91,175.91,0,0,0-36.26-15.36c.09-.37.17-.75.25-1.13a2.09,2.09,0,0,0,.66,0,67.71,67.71,0,0,1,25.81.22c0,.24,0,.49,0,.73a7.45,7.45,0,0,0,3.73,5.69,6.6,6.6,0,0,0,3.16.78,9.59,9.59,0,0,0,6.47-2.83,8.1,8.1,0,0,0,1.95-3,7.22,7.22,0,0,0-1-6.46,9.74,9.74,0,0,0-4.79-3.48,6.57,6.57,0,0,0-6.55.9,7.83,7.83,0,0,0-2.29,3.2,72.63,72.63,0,0,0-26.62-.33,21.26,21.26,0,0,0-.06-3.08,115.65,115.65,0,0,0,30.38-6.77c6.41-2.37,14.32-6,19-13a14.6,14.6,0,0,0,6.32,3,14.3,14.3,0,0,0,2.58.23,23,23,0,0,0,6.14-1A45.52,45.52,0,0,0,249,104.53a2.24,2.24,0,0,0-2.25-3.87,40.55,40.55,0,0,1-9.51,4,14.79,14.79,0,0,1-6.69.66,10.59,10.59,0,0,1-5.26-2.87c.36,0,.72.06,1.08.06,5.8,0,10.79-3.41,12.78-5a10.18,10.18,0,0,0,4-5.71,2.24,2.24,0,0,0-4.39-.89A5.9,5.9,0,0,1,236.37,94c-3.61,2.83-7.7,4.3-11.07,4a3.68,3.68,0,0,0-.48-.06c0-.75,1-2.88,2.7-4.92a30,30,0,0,1,8-6,2.24,2.24,0,0,0-2.22-3.89,34,34,0,0,0-9.21,7,20.49,20.49,0,0,0-2.7,4,11.53,11.53,0,0,1,.14-1.38,16,16,0,0,1,5-9.13,2.24,2.24,0,1,0-3-3.31,20.6,20.6,0,0,0-6.4,11.69,14.31,14.31,0,0,0,0,5.26,14.55,14.55,0,0,0,2.35,5.32c.25.37.52.72.8,1.07a2,2,0,0,0-.41.42c-3.89,6.13-11.12,9.41-17,11.58a111.75,111.75,0,0,1-29.77,6.57,20.21,20.21,0,0,0-1.22-3,56.47,56.47,0,0,0,17.77-8.06,6.4,6.4,0,0,0,2.52,1.41,5.85,5.85,0,0,0,1.43.19,5.79,5.79,0,0,0,4-1.69,8,8,0,0,0,2.47-4.2,6.12,6.12,0,0,0-1.39-5.34,6.81,6.81,0,0,0-2.48-1.62c-2.47-1-6-.86-8.05,1.67a6.21,6.21,0,0,0-1,5.63c0,.07.05.13.07.19a52,52,0,0,1-17.72,7.8c-.11,0-.19.1-.3.14a17.5,17.5,0,0,0-2.38-2.25,42.83,42.83,0,0,0,8.54-14c.23.09.42.19.66.27a17.82,17.82,0,0,0,4.23,1,11.9,11.9,0,0,0,1.34.07,16.16,16.16,0,0,0,9.14-3,27.58,27.58,0,0,0,7.06-7.52,2.24,2.24,0,1,0-3.7-2.51,23.53,23.53,0,0,1-5.91,6.35,11.19,11.19,0,0,1-7.47,2.21,11.68,11.68,0,0,1-1.89-.4l.08,0a35.33,35.33,0,0,0,6.49-4.32,15.45,15.45,0,0,0,4.73-7,2.24,2.24,0,0,0-4.3-1.28,10.94,10.94,0,0,1-3.39,4.93,28.37,28.37,0,0,1-4.8,3.26c.87-3.37,2-6.77,4.17-9.4a2.24,2.24,0,1,0-3.48-2.82c-3.23,4-4.55,8.92-5.59,13.45a7,7,0,0,1-.52-.58,8.9,8.9,0,0,1-1.49-5.31,27.7,27.7,0,0,1,1.06-6.42,2.24,2.24,0,1,0-4.34-1.1,31,31,0,0,0-1.2,7.49,13.15,13.15,0,0,0,2.37,8,12,12,0,0,0,2.74,2.61,38.11,38.11,0,0,1-8.21,13.53c-.06.07-.08.15-.14.22a23,23,0,0,0-5.21-1.76c-.78-.16-1.57-.28-2.37-.37a84.49,84.49,0,0,0,.2-43.35,20.08,20.08,0,0,0,6.79-3.75,24.4,24.4,0,0,0,8.19-16.88,2.24,2.24,0,0,0-2.07-2.4,2.28,2.28,0,0,0-2.4,2.07A19.87,19.87,0,0,1,159.53,58a15.41,15.41,0,0,1-2.87,1.91A74.25,74.25,0,0,0,159,39.62a2.35,2.35,0,0,0-2.3-2.18,2.25,2.25,0,0,0-2.18,2.31,69.2,69.2,0,0,1-2.6,20.92.19.19,0,0,0,0,.07c-.21-.32-.4-.67-.58-1a34.12,34.12,0,0,1-3.71-17.48,2.24,2.24,0,0,0-2.11-2.36,2.22,2.22,0,0,0-2.36,2.1,38.58,38.58,0,0,0,4,19.44,11,11,0,0,1-1.77-.48,18.72,18.72,0,0,1-4.81-2.7A19.43,19.43,0,0,1,136,53.81a10,10,0,0,1-1.88-5.38,2.24,2.24,0,1,0-4.48.06,14.28,14.28,0,0,0,2.67,7.86,23.5,23.5,0,0,0,5.54,5.5,23,23,0,0,0,6,3.32,17.24,17.24,0,0,0,5.8,1c.53,0,1.07,0,1.6-.07a80,80,0,0,1-.41,42.3c-.44,0-.87,0-1.31.08a56.63,56.63,0,0,0-2.48-19.65,6.43,6.43,0,0,0,2.08-2,5.58,5.58,0,0,0,.15-5.61,8,8,0,0,0-3.3-3.59,6,6,0,0,0-5.51-.23,6.65,6.65,0,0,0-2.27,1.9c-1.65,2.07-2.6,5.51-.76,8.17a6.29,6.29,0,0,0,5.1,2.59h.2A52,52,0,0,1,145,109.25a29.58,29.58,0,0,0-3.35,1,74.56,74.56,0,0,0-19.19-34.53,2.15,2.15,0,0,0-.83-.52,15.94,15.94,0,0,0,1.59-5A21.59,21.59,0,0,0,122,60.23c-1.3-3.84-3.91-9.13-8.88-12.48a2.24,2.24,0,0,0-2.51,3.71c4,2.66,6.07,7,7.15,10.21a17.25,17.25,0,0,1,1,8,11.05,11.05,0,0,1-.85,2.84c-3.46-7.24-7.9-12.7-13.24-16.22A2.24,2.24,0,1,0,102.22,60c4.35,2.87,8.18,7.47,11.2,13.42A22.31,22.31,0,0,1,97.93,66a2.24,2.24,0,0,0-3.38,2.94,26.86,26.86,0,0,0,19,9,12.5,12.5,0,0,1-5.19,2.18,14.72,14.72,0,0,1-14-6.17,2.24,2.24,0,1,0-3.68,2.55,19.28,19.28,0,0,0,15.61,8.27A17.26,17.26,0,0,0,109,84.5a17.46,17.46,0,0,0,10.16-5.7.53.53,0,0,0,.06.1,70.2,70.2,0,0,1,18.28,33.35,25,25,0,0,0-5.86,4.59,35.84,35.84,0,0,1-11.46-10.28,2.54,2.54,0,0,0-.56-.53,12.5,12.5,0,0,0-.9-8.79,31.3,31.3,0,0,0-5.61-7.57,2.24,2.24,0,1,0-3.3,3,27.3,27.3,0,0,1,4.85,6.44,7.94,7.94,0,0,1,.56,5.81,12.12,12.12,0,0,0-2.09-4.14c-1.54-2-3.18-3.84-4.89-5.61a2.24,2.24,0,0,0-3.23,3.11c1.61,1.66,3.15,3.44,4.61,5.28a7.42,7.42,0,0,1,.81,1.31,17,17,0,0,1-9.43-4.18,2.24,2.24,0,0,0-3,3.33,21.27,21.27,0,0,0,11.23,5.2,18.13,18.13,0,0,1-4.14.17c-3.74-.22-6.54-1.19-8.32-2.89a2.24,2.24,0,0,0-3.08,3.24c2.56,2.45,6.31,3.84,11.13,4.12.62,0,1.2.06,1.77.06a17.66,17.66,0,0,0,5.92-.9,12.25,12.25,0,0,0,4.7-3,40.16,40.16,0,0,0,11.69,10.38,21.58,21.58,0,0,0-2.46,6A51.47,51.47,0,0,1,108,123.31a1.5,1.5,0,0,1,0-.2,6.22,6.22,0,0,0-2.36-5.21c-2.57-2-6.06-1.16-8.2.39a6.62,6.62,0,0,0-2,2.19,6,6,0,0,0,0,5.51,8,8,0,0,0,3.44,3.46,6.12,6.12,0,0,0,3,.81,5.37,5.37,0,0,0,2.65-.71,6.48,6.48,0,0,0,2.09-2A56.55,56.55,0,0,0,125.85,131a21.66,21.66,0,0,0,.22,4.11,1.7,1.7,0,0,0-.5,0A49.49,49.49,0,0,1,83.67,127a26,26,0,0,0-6-23.27,2.24,2.24,0,1,0-3.31,3,21.82,21.82,0,0,1,5.36,17l-1-1c-1.79-1.79-3.67-3.49-5.57-5.16-1.33-1.16-3.69-4.12-5.63-4a1.77,1.77,0,0,0-1.46.91,3.09,3.09,0,0,0-.25,1.6c.07,1.74,2.48,3.23,3.71,4.3,2.15,1.86,4.26,3.78,6.28,5.79.35.34.7.69,1,1a12.62,12.62,0,0,1-2.18.25,27,27,0,0,1-16.27-4.7,2.24,2.24,0,0,0-2.73,3.55l.49.41a2.37,2.37,0,0,0,.76.42,31.67,31.67,0,0,0,16.74,4.82c.4,0,.79,0,1.19,0a16.87,16.87,0,0,0,1.87-.16A9.93,9.93,0,0,1,74.61,133.82Zm57,42.21a3.67,3.67,0,0,1-1.81,1.2,1.62,1.62,0,0,1-1.38-.23,2.62,2.62,0,0,1-.53-.85c-.48-1.1-.39-2.4.2-2.89a1.59,1.59,0,0,1,1-.31,2.22,2.22,0,0,1,.57.07,3.37,3.37,0,0,1,2.35,1.83C132,175,132.13,175.39,131.56,176Zm58.54-8.27.26,0c.47.05,1.16.26,1.72,1.46a5.41,5.41,0,0,1,.55,3.17,2.7,2.7,0,0,1-1.36,2,3.14,3.14,0,0,1-1.56.27c-1.6,0-3.53-.77-4-2.19a3,3,0,0,1,.63-2.59A5.31,5.31,0,0,1,190.1,167.76Zm15.72-37.51a2.15,2.15,0,0,1,2.25-.19,5.49,5.49,0,0,1,2.64,1.85,2.72,2.72,0,0,1,.45,2.37,3.61,3.61,0,0,1-.9,1.29c-1.14,1.13-3,2-4.35,1.27a3,3,0,0,1-1.4-2.28A5.11,5.11,0,0,1,205.82,130.25ZM191.65,104.3a2.74,2.74,0,0,1,2.9-.28,2.43,2.43,0,0,1,.84.51,1.59,1.59,0,0,1,.28,1.37,3.59,3.59,0,0,1-1.15,1.84c-.62.6-1,.49-1.17.44a3.41,3.41,0,0,1-1.89-2.3A1.83,1.83,0,0,1,191.65,104.3ZM141.13,84.91a2.72,2.72,0,0,1,.57-2.84,2.37,2.37,0,0,1,.74-.67,1.15,1.15,0,0,1,.5-.1,1.9,1.9,0,0,1,.9.24,3.68,3.68,0,0,1,1.42,1.63c.38.77.17,1.11.08,1.26a3.42,3.42,0,0,1-2.72,1.13h0A1.79,1.79,0,0,1,141.13,84.91Zm-38.81,40.74c-.16.08-.51.28-1.25-.13A3.65,3.65,0,0,1,99.5,124a1.54,1.54,0,0,1-.07-1.38,2.2,2.2,0,0,1,.7-.71,3.48,3.48,0,0,1,2-.7,1.5,1.5,0,0,1,.9.25,1.85,1.85,0,0,1,.58,1.48A3.39,3.39,0,0,1,102.32,125.65Zm1.07,28.6a1.86,1.86,0,0,1-1.8.81h0a4.94,4.94,0,0,1-2.84-.78,2.43,2.43,0,0,1-1.09-1.83,3.31,3.31,0,0,1,.39-1.38c.58-1.22,1.81-2.43,3-2.43l.27,0a2.68,2.68,0,0,1,1.84,1.5h0A4.6,4.6,0,0,1,103.39,154.25Zm57.78,32.83a5.52,5.52,0,0,1-1.35,2.92,2.78,2.78,0,0,1-2.26.87,3.74,3.74,0,0,1-1.43-.67c-1.31-.91-2.47-2.64-2-4.06a3,3,0,0,1,2-1.77,5,5,0,0,1,4.47.53A2.1,2.1,0,0,1,161.17,187.08Zm-4.28-73.81c3.88.8,10.66,3.43,12.47,12,.68,3.23.3,7-1.21,11.8-1.88,6-4.45,9.87-7.87,11.82-5.69,3.25-13.2.86-18.51-1.72-2.68-1.3-6-3.14-8.3-5.88-4.27-5.15-4.28-13.57,0-19.57C138.11,115.11,148.2,111.49,156.89,113.27Z"/></g></g></svg>