<?xml version="1.0" encoding="utf-8"?>
<!-- Generator: Adobe Illustrator 23.0.4, SVG Export Plug-In . SVG Version: 6.00 Build 0)  -->
<svg version="1.1" id="Layer_1" xmlns="http://www.w3.org/2000/svg" xmlns:xlink="http://www.w3.org/1999/xlink" x="0px" y="0px"
	 viewBox="0 0 150 51.8" style="enable-background:new 0 0 150 51.8;" xml:space="preserve">
<style type="text/css">
	.st0{fill:#F26769;}
	.st1{fill:#16223B;}
	.st2{fill:#12965B;}
	.st3{fill:#17233B;}
	.st4{fill:none;}
</style>
<title>PC_Logo_Colors</title>
<g>
	<path class="st0" d="M33.9,9c-0.2,0-0.4-0.1-0.5-0.3c-0.9-2.2-2.5-4.1-4.6-5.4c-1.7-1-3.4-1.4-4.3-1.4c-0.3,0-0.6-0.2-0.6-0.5
		c0-0.3,0.2-0.6,0.5-0.6c0,0,0,0,0.1,0c1.9,0,7.3,1.3,9.9,7.5c0.1,0.3,0,0.6-0.3,0.7C34,9,33.9,9,33.9,9z"/>
	<path class="st0" d="M24.4,51.5c-5.3,0-10.3-1.8-14-5.1s-5.8-7.8-5.8-12.5c0-4.7,1.7-9.2,5-13.4c0.2-0.2,0.5-0.3,0.8-0.1
		s0.3,0.5,0.1,0.8c-3.2,4-4.8,8.3-4.8,12.7c0,4.4,1.9,8.6,5.5,11.7c3.5,3.1,8.3,4.9,13.3,4.9c10.3,0,18.7-7.4,18.7-16.5
		c0-2.5-0.5-4.8-1.7-7.5c-0.1-0.3,0-0.6,0.2-0.7c0.3-0.1,0.6,0,0.7,0.2c0,0,0,0,0,0.1c1.2,2.8,1.8,5.3,1.8,7.9
		C44.3,43.6,35.4,51.5,24.4,51.5z"/>
	<path class="st1" d="M27.1,21c-0.2,0-0.3-0.1-0.4-0.3c-0.6-2-1.3-4.2-2-6.4c-0.1-0.3-0.4-0.5-0.7-0.5l0,0c-0.3,0-0.6,0.2-0.7,0.5
		c-0.2,0.5-0.3,1-0.5,1.6c-0.1,0.2-0.3,0.3-0.5,0.3c-0.2-0.1-0.3-0.3-0.3-0.5l0,0c0.2-0.6,0.4-1.1,0.5-1.6c0.2-0.7,0.8-1.1,1.5-1.1
		l0,0c0.7,0,1.3,0.4,1.5,1.1c0.7,2.2,1.4,4.4,2,6.4c0.1,0.2-0.1,0.4-0.3,0.5c0,0,0,0,0,0C27.2,21,27.1,21,27.1,21z"/>
	<path class="st1" d="M17.9,34.6c-0.2,0-0.4-0.2-0.4-0.4l0,0c0-2.5,0.8-6.6,2.4-12.1c0.1-0.2,0.3-0.3,0.5-0.3
		c0.2,0.1,0.3,0.3,0.3,0.5c-1.6,5.4-2.3,9.4-2.3,11.9C18.3,34.4,18.1,34.6,17.9,34.6z"/>
	<path class="st1" d="M18.7,40.3c-0.2,0-0.4-0.1-0.5-0.4c-0.3-0.8-0.5-1.6-0.6-2.5c0-0.3,0.2-0.6,0.5-0.6c0.3,0,0.5,0.2,0.6,0.4
		c0.1,0.8,0.3,1.5,0.6,2.3c0.1,0.3,0,0.6-0.3,0.7C18.9,40.3,18.8,40.3,18.7,40.3z"/>
	<path class="st1" d="M23.9,44.1L23.9,44.1c-0.2,0-0.4-0.2-0.4-0.4s0.2-0.4,0.4-0.4h0c3.5,0,5.6-3.3,5.6-9.2c0-0.2,0.2-0.4,0.4-0.4
		c0,0,0,0,0,0l0,0c0.2,0,0.4,0.2,0.4,0.4l0,0C30.3,43.2,25.8,44.1,23.9,44.1z"/>
	<path class="st1" d="M29.5,30.6c-0.2,0-0.4-0.1-0.4-0.3c-0.2-1-0.4-2-0.7-3.2c-0.1-0.2,0.1-0.4,0.3-0.5s0.4,0.1,0.5,0.3l0,0
		c0.3,1.2,0.5,2.2,0.7,3.2C29.9,30.3,29.8,30.5,29.5,30.6C29.5,30.6,29.5,30.6,29.5,30.6z"/>
	<path class="st1" d="M25.9,26.6L25.9,26.6c-1.1,0-2-1-1.9-2.1c0-1.1,0.9-1.9,1.9-1.9l0,0c0.2,0,0.4,0.2,0.4,0.4
		c0,0.2-0.2,0.4-0.4,0.4l0,0c-0.7,0-1.2,0.6-1.1,1.2c0,0.6,0.5,1.1,1.1,1.1l0,0c0.7,0,1.2-0.5,1.2-1.2c0-0.2,0.2-0.4,0.4-0.4l0,0
		c0.2,0,0.4,0.2,0.4,0.4C27.9,25.7,27,26.6,25.9,26.6L25.9,26.6z"/>
	<path class="st1" d="M21.1,37.7L21.1,37.7c-1.1,0-2-1-1.9-2.1c0-1.1,0.9-1.9,1.9-1.9l0,0c0.2,0,0.4,0.2,0.4,0.4
		c0,0.2-0.2,0.4-0.4,0.4l0,0l0,0c-0.3,0-0.6,0.1-0.8,0.3c-0.5,0.5-0.5,1.2,0,1.7c0.2,0.2,0.5,0.4,0.8,0.4l0,0c0.7,0,1.2-0.5,1.2-1.2
		c0-0.2,0.2-0.4,0.4-0.4l0,0c0.2,0,0.4,0.2,0.4,0.4c0,0,0,0,0,0C23.1,36.8,22.2,37.7,21.1,37.7z"/>
	<path class="st1" d="M21.9,31.3L21.9,31.3c-0.2,0-0.4-0.2-0.4-0.4c0-0.2,0.2-0.4,0.4-0.4l0,0c0.7,0,1.2-0.5,1.2-1.2
		c0-0.7-0.5-1.2-1.2-1.2l0,0c-0.7,0-1.2,0.5-1.2,1.2c0,0.2-0.2,0.4-0.4,0.4c0,0,0,0,0,0l0,0c-0.2,0-0.4-0.2-0.4-0.4c0,0,0,0,0,0
		c0-1.1,0.9-2,2-2l0,0c1.1,0,2,1,1.9,2.1C23.8,30.5,23,31.3,21.9,31.3L21.9,31.3z"/>
	<path class="st1" d="M22.7,21.8L22.7,21.8c-0.2,0-0.4-0.2-0.4-0.4c0,0,0,0,0,0c0-0.2,0.2-0.4,0.4-0.4c0,0,0,0,0,0l0,0
		c0.7,0,1.2-0.5,1.2-1.2c0-0.3-0.1-0.6-0.3-0.8c-0.2-0.2-0.5-0.4-0.8-0.3l0,0c-0.7,0-1.2,0.5-1.2,1.2c0,0.2-0.2,0.4-0.4,0.4
		c-0.2,0-0.4-0.2-0.4-0.4c0-1.1,0.9-2,2-2l0,0c1.1,0,2,1,1.9,2.1C24.6,20.9,23.8,21.7,22.7,21.8L22.7,21.8z"/>
	<path class="st1" d="M25.9,40.1L25.9,40.1c-0.2,0-0.4-0.2-0.4-0.4c0-0.2,0.2-0.4,0.4-0.4l0,0c0.7,0,1.2-0.5,1.2-1.1
		c0-0.7-0.5-1.2-1.1-1.2c0,0-0.1,0-0.1,0l0,0c-0.7,0-1.2,0.5-1.2,1.2c0,0.2-0.2,0.4-0.4,0.4l0,0c-0.2,0-0.4-0.2-0.4-0.4c0,0,0,0,0,0
		c0-1.1,0.9-2,2-2l0,0c1.1,0,2,1,1.9,2.1C27.8,39.3,26.9,40.1,25.9,40.1L25.9,40.1z"/>
	<path class="st1" d="M26.7,34.6L26.7,34.6c-1.1,0-2-0.9-2-2c0-0.2,0.2-0.4,0.4-0.4c0,0,0,0,0,0l0,0c0.2,0,0.4,0.2,0.4,0.4l0,0
		c0,0.7,0.5,1.2,1.2,1.2l0,0c0.7,0,1.2-0.5,1.2-1.2c0-0.7-0.5-1.2-1.2-1.2c0,0,0,0,0,0c-0.2,0-0.4-0.2-0.4-0.4s0.2-0.4,0.4-0.4l0,0
		c1.1,0,2,1,1.9,2.1C28.6,33.7,27.8,34.5,26.7,34.6L26.7,34.6z"/>
	<path class="st1" d="M21.9,43.3L21.9,43.3c-1.1,0-2-0.9-2-2c0,0,0,0,0,0c0-0.2,0.2-0.4,0.4-0.4l0,0c0.2,0,0.4,0.2,0.4,0.4
		c0,0,0,0,0,0c0,0.3,0.1,0.6,0.3,0.8c0.2,0.2,0.5,0.4,0.8,0.3l0,0c0.7,0,1.2-0.6,1.1-1.2c0-0.6-0.5-1.1-1.1-1.1
		c-0.2,0-0.4-0.2-0.4-0.4s0.2-0.4,0.4-0.4l0,0c1.1,0,2,1,1.9,2.1C23.8,42.5,22.9,43.3,21.9,43.3L21.9,43.3z"/>
	<path class="st2" d="M5.2,20.1c-0.2,0-0.3,0-0.5,0c-0.3,0-0.5-0.2-0.5-0.5c-0.1-3.3,0.8-6.4,2.7-8.9c0.3-0.4,0.7-0.9,1.1-1.3
		C8,9.3,8.2,9.3,8.4,9.3c3.2,0.4,6.4-0.6,9-2.8c0.2-0.2,0.6-0.2,0.8,0.1c0.1,0.1,0.1,0.2,0.1,0.4c0,0.8-0.1,1.6-0.2,2.3
		C17,15.7,11.8,20.1,5.2,20.1z M8.5,10.4c-0.3,0.3-0.6,0.6-0.8,1c-1.6,2.1-2.5,4.8-2.5,7.7c2.9,0,5.5-0.9,7.7-2.7
		c2.2-1.9,3.7-4.5,4.1-7.3c0.1-0.3,0.1-0.6,0.1-1C14.6,9.9,11.6,10.7,8.5,10.4z"/>
	<path class="st2" d="M9.8,10.5c-3.6,0-7-1.6-9.6-4.5C0,5.8,0,5.5,0.1,5.3c2.6-2.9,6-4.5,9.6-4.5s7,1.6,9.6,4.5
		c0.2,0.2,0.2,0.5,0,0.7C16.8,8.9,13.4,10.5,9.8,10.5z M1.3,5.6c2.4,2.4,5.4,3.7,8.5,3.7s6.1-1.3,8.5-3.7c-2.4-2.4-5.4-3.7-8.5-3.7
		S3.7,3.2,1.3,5.6z"/>
	<path class="st2" d="M23.7,5.9c-0.2,0-0.4-0.1-0.5-0.3c-1.6-3.3-4.4-4.5-6.2-4.5c-0.3,0-0.5-0.3-0.5-0.6C16.5,0.2,16.8,0,17,0
		c3.5,0,6,2.8,7.2,5.1c0.1,0.3,0,0.6-0.3,0.7c0,0,0,0,0,0C23.9,5.9,23.8,5.9,23.7,5.9z"/>
	<path class="st3" d="M34.5,10.2c0-0.2,0.2-0.4,0.4-0.4h6.9c3.9,0,7.2,3,7.2,7.2c0,4.2-3.3,7.2-7.2,7.2H36v7.5
		c0,0.2-0.2,0.4-0.5,0.4h-0.6c-0.2,0-0.4-0.2-0.4-0.4L34.5,10.2z M41.7,22.7c3.1,0,5.8-2.4,5.8-5.8c0-3.4-2.7-5.6-5.8-5.6H36v11.4
		L41.7,22.7z"/>
	<path class="st3" d="M75.5,10.2c0-0.2,0.2-0.4,0.4-0.4h6.9c4,0,7.2,3,7.2,7.2c0,4.2-3.3,7.2-7.2,7.2H77v7.5c0,0.2-0.2,0.4-0.5,0.4
		c0,0,0,0,0,0h-0.6c-0.2,0-0.4-0.2-0.4-0.4V10.2z M82.7,22.7c3.1,0,5.8-2.4,5.8-5.8c0-3.4-2.7-5.6-5.8-5.6H77v11.4L82.7,22.7z"/>
	<path class="st3" d="M91.3,31.8l9.8-22.1c0.1-0.1,0.2-0.2,0.4-0.2h0.1c0.2,0,0.3,0.1,0.4,0.2l9.7,22.1c0.1,0.2,0.1,0.4-0.3,0.4
		h-0.8c-0.2,0-0.4-0.1-0.4-0.3l-2.6-5.9H95.4l-2.6,5.9c-0.1,0.2-0.2,0.3-0.4,0.3h-0.9C91.3,32.2,91.2,32,91.3,31.8z M107.1,24.7
		L101.6,12h-0.1L96,24.7H107.1z"/>
	<path class="st3" d="M119.9,21.3l-8.1-11c-0.2-0.3-0.1-0.5,0.3-0.5h1c0.2,0,0.3,0.1,0.4,0.2l7.3,9.9L128,10
		c0.1-0.1,0.3-0.2,0.4-0.2h1c0.3,0,0.4,0.2,0.3,0.5l-8.3,11v10.5c0,0.2-0.2,0.4-0.4,0.4c-0.4,0-1.1,0.1-1.1-0.4L119.9,21.3z"/>
	<path class="st1" d="M129.4,31.8l9.8-22.1c0.1-0.1,0.2-0.2,0.4-0.2h0.1c0.2,0,0.3,0.1,0.4,0.2l9.7,22.1c0.1,0.2,0.1,0.4-0.3,0.4
		h-0.8c-0.2,0-0.4-0.1-0.4-0.3l-2.6-5.9h-12.2l-2.6,5.9c-0.1,0.2-0.2,0.3-0.4,0.3h-0.9C129.4,32.2,129.3,32,129.4,31.8z M145.2,24.7
		L139.8,12h-0.1l-5.6,12.7H145.2z"/>
	<path class="st3" d="M50.3,31.8l9.8-22.1c0.1-0.1,0.2-0.2,0.4-0.2h0.1c0.2,0,0.3,0.1,0.4,0.2l9.7,22.1c0.1,0.2,0.1,0.4-0.3,0.4
		h-0.8c-0.2,0-0.4-0.1-0.4-0.3L66.6,26H54.4l-2.6,5.9c-0.1,0.2-0.3,0.3-0.4,0.3h-0.9C50.3,32.2,50.2,32,50.3,31.8z M66.1,24.7
		L60.6,12h-0.1L55,24.7H66.1z"/>
	<path class="st4" d="M83.9,29c0-1.4-0.9-2.3-2.5-2.3c-6,0-13.8,6.8-16.6,13.6c0.6,0.1,1.3,0.1,1.9,0.1C73.5,40.5,83.9,34.1,83.9,29
		z"/>
	<path class="st4" d="M136.9,38.4c0-0.1-0.1-0.3-0.5-0.3c-1.6,0-3.7,1.7-4.6,3.5C134,41,136.9,39.6,136.9,38.4z"/>
	<path class="st4" d="M96.3,38.4c0-0.1-0.1-0.3-0.5-0.3c-1.6,0-3.7,1.7-4.6,3.5C93.4,41,96.3,39.6,96.3,38.4z"/>
	<path class="st0" d="M77.1,47.7c-0.2,0-0.4,0.1-0.5,0.3c-2,1.5-4.8,2.8-7.6,2.8c-3.2,0-5.2-2.1-5.2-5.5c0-1.4,0.3-2.8,0.7-4
		c0.7,0.1,1.4,0.2,2.1,0.1c7.3,0,18.2-7,18.2-12.4c0-1.9-1.2-3.1-3.5-3.1c-6.5,0-14.7,7.2-17.7,14.3c-3.3-0.7-6.1-2.5-6.1-5.9
		c0-3.8,3.8-6,7.1-6c1.1,0,2.1,0.2,3.1,0.5l-0.4-1c-0.8-0.3-1.7-0.4-2.5-0.4c-4.2,0-8.4,2.5-8.4,7c0,3.8,3.2,5.9,6.9,6.7
		c-0.5,1.4-0.8,2.8-0.8,4.2c0,4.1,2.5,6.5,6.3,6.5c2.9,0,6-1.4,8.2-3.3c0.2-0.2,0.3-0.3,0.3-0.5C77.5,47.8,77.3,47.7,77.1,47.7
		C77.1,47.7,77.1,47.7,77.1,47.7z M81.5,26.8c1.6,0,2.5,0.8,2.5,2.3c0,5-10.4,11.4-17.1,11.4c-0.7,0-1.3,0-1.9-0.1
		C67.7,33.5,75.4,26.8,81.5,26.8L81.5,26.8z"/>
	<path class="st0" d="M85.8,44.3c-0.5,0-0.8-0.2-0.8-0.7c0-1.7,2.5-3.4,2.5-4.7c0-0.3-0.2-0.5-0.5-0.6c-0.6-0.3-1.7-1-1.7-1.1
		c0-0.4,1.2-1.5,1.2-1.9c-0.1-0.3-0.3-0.6-0.6-0.6c-0.7,0-1.2,1.8-1.5,2.5c-0.5,0.9-2,3-3,4.1c-0.1,0.1-0.1,0.2-0.1,0.3
		c0,0.2,0.2,0.3,0.3,0.3c0.1,0,0.2-0.1,0.3-0.1c1.1-1.2,2.3-2.7,2.7-3.3c0.2-0.2,0.3-0.3,0.4-0.3c0.2,0,0.5,0.2,1.1,0.7
		c0.2,0.1,0.3,0.3,0.3,0.4c0,1-2.3,2.7-2.3,4.5c0,0.9,0.7,1.4,1.5,1.4c1.3,0,2.8-1.1,4.2-2.4c0-0.4,0.1-0.8,0.3-1.2
		C88.7,43,87.1,44.3,85.8,44.3z"/>
	<path class="st0" d="M92.7,44.5c-1.1,0-1.8-0.6-1.8-1.6c0-0.2,0-0.3,0.1-0.5c2.4-0.6,6.2-2.2,6.2-3.9c0-0.7-0.6-1.2-1.5-1.2
		c-1.8,0-4.6,2-5.5,4.2c0-0.1,0.1-0.1,0.1-0.2c0,0,0.1-0.2,0.3-0.2c0.2,0,0.3,0.2,0.3,0.3c0,0.1-0.1,0.2-0.1,0.3
		c-0.3,0.3-0.6,0.6-0.9,0.9c0,0.1,0,0.1,0,0.2c0,1.6,1.3,2.6,2.8,2.6c2,0,4-1.3,5.2-2.4c0.1-0.5,0.3-1,0.6-1.4
		C97.8,42.3,95.5,44.5,92.7,44.5z M95.8,38.1c0.4,0,0.5,0.3,0.5,0.3c0,1.2-2.9,2.6-5.1,3.1C92,39.8,94.2,38.1,95.8,38.1L95.8,38.1z"
		/>
	<path class="st0" d="M90.8,41.7c0.1-0.1,0.1-0.2,0.1-0.3c0-0.2-0.2-0.3-0.3-0.3c-0.1,0-0.3,0.2-0.3,0.2c0,0.1-0.1,0.1-0.1,0.2
		c-0.2,0.4-0.2,0.8-0.3,1.2C90.2,42.3,90.5,42,90.8,41.7z"/>
	<path class="st0" d="M106.1,43.6c-0.6,0-1.1-0.4-1.1-1.5c0-1,0.6-1.7,0.6-1.9c0-0.2-0.2-0.4-0.5-0.5c-0.3,0-0.8,0.8-1.6,1.7
		c-0.9,1.1-2.9,2.9-4.1,2.9c-0.4,0-0.6-0.3-0.6-0.7c0-2.3,3.5-5.9,6.5-5.9c0.9,0,1,0.6,1,0.8s-0.1,0.4-0.1,0.6
		c0,0.1,0.1,0.2,0.2,0.2c0,0,0,0,0,0c0.2,0,0.6-0.4,0.6-1c0-0.7-0.6-1.5-2-1.5c-2.4,0-5.2,2.2-6.5,4.4c0.2-0.2,0.2-0.3,0.2-0.3
		s0.1-0.2,0.3-0.2c0.2,0,0.3,0.1,0.3,0.3c0,0.1-0.1,0.2-0.1,0.3c-0.4,0.4-0.8,0.8-1.3,1.2c-0.1,0.3-0.1,0.6-0.1,0.9
		c0,1,0.6,1.5,1.5,1.5c1.5,0,3.6-1.9,4.7-3.2c0,1.3,0.8,2.3,1.9,2.3c0.9,0,1.9-0.6,3.1-1.8c0-0.4,0.1-0.7,0.2-1.1
		C107.9,43,106.9,43.6,106.1,43.6z"/>
	<path class="st0" d="M99.2,41.7c0.1-0.1,0.1-0.2,0.1-0.3c0-0.2-0.1-0.3-0.3-0.3c-0.1,0-0.3,0.2-0.3,0.2s-0.1,0.1-0.2,0.3
		c-0.3,0.4-0.5,0.9-0.6,1.4C98.4,42.6,98.8,42.2,99.2,41.7z"/>
	<path class="st0" d="M110.9,43.8c-0.4,0-0.8-0.3-0.8-0.7c0,0,0-0.1,0-0.1c0-2.1,1.3-4.6,2.7-6.6c1.1,0.1,2.3,0.3,3.1,0.3
		c0.3,0,0.6-0.3,0.6-0.5c0-0.1-0.1-0.2-0.4-0.2c-0.9,0-1.8-0.1-2.7-0.3c1.3-1.7,2.6-3.1,2.9-3.6c0.2-0.3,0.3-0.3,0.3-0.5
		c0-0.3-0.2-0.5-0.5-0.5c-0.1,0-0.3,0.1-0.4,0.3c-1.2,1.3-2.3,2.7-3.4,4.2c-0.6-0.1-1.3-0.1-1.9-0.1c-1.2,0-1.7,0.5-1.7,0.7
		c0,0.2,0.1,0.3,0.3,0.3c0,0,0,0,0,0c0.2,0,0.4-0.3,1.2-0.3c0.4,0,1,0.1,1.5,0.1c-1.1,1.7-2.1,3.5-2.6,5.2c0.1-0.1,0.1-0.1,0.2-0.2
		c0,0,0.1-0.2,0.3-0.2c0.2,0,0.3,0.1,0.3,0.3c0,0.1-0.1,0.2-0.1,0.3c-0.3,0.3-0.6,0.6-0.8,0.9c0,0.2,0,0.3,0,0.5
		c0,1,0.7,1.6,1.6,1.6c1.4,0,3-1.1,4-2c0.1-0.4,0.2-0.8,0.4-1.2C114.5,42,112.6,43.8,110.9,43.8z"/>
	<path class="st0" d="M109.9,41.7c0.1-0.1,0.1-0.2,0.1-0.3c0-0.2-0.2-0.3-0.4-0.3c-0.1,0-0.3,0.2-0.3,0.2c-0.1,0.1-0.1,0.1-0.2,0.2
		c-0.1,0.4-0.2,0.7-0.2,1.1C109.3,42.3,109.6,42,109.9,41.7z"/>
	<path class="st0" d="M121.1,41.1c-0.1,0-0.3,0.2-0.3,0.2s-2.4,2.8-4.3,2.8c-0.5,0-0.9-0.3-0.9-0.9c0-1.6,2.1-4.2,2.7-5
		c0.1-0.1,0.1-0.2,0.2-0.3c0-0.2-0.2-0.4-0.4-0.4c0,0,0,0-0.1,0c-0.4,0-2.2,2.2-3,4.2c0.1-0.1,0.2-0.2,0.2-0.2s0.1-0.2,0.3-0.2
		c0.2,0,0.3,0.1,0.3,0.3c0,0.1-0.1,0.2-0.1,0.3c-0.3,0.3-0.7,0.7-1,1c0,0.1,0,0.3,0,0.4c0,1,0.7,1.7,1.7,1.7c1.8,0,3.9-2,4.7-2.7
		c0.1-0.3,0.2-0.5,0.4-0.8C121.3,41.2,121.2,41.1,121.1,41.1z"/>
	<path class="st0" d="M120.3,35.1c0.5,0,0.9-0.7,0.9-1.2c0-0.3-0.2-0.5-0.5-0.5c0,0,0,0,0,0c-0.5,0-0.9,0.7-0.9,1.2
		C119.7,34.8,120,35.1,120.3,35.1C120.3,35.1,120.3,35.1,120.3,35.1z"/>
	<path class="st0" d="M115.7,41.7c0.1-0.1,0.1-0.2,0.1-0.3c0-0.2-0.2-0.3-0.3-0.3c-0.1,0-0.3,0.2-0.3,0.2s-0.1,0.1-0.2,0.2
		c-0.2,0.4-0.3,0.8-0.4,1.2C115,42.4,115.4,42.1,115.7,41.7z"/>
	<path class="st0" d="M130.8,41.3c-1.3,1.5-2.5,2-3.6,2c-0.7,0-1.2-0.3-1.3-0.7c1.6-1.5,2.9-3.5,2.9-5.4c0-1-0.7-1.5-0.9-1.5
		c-0.1,0-0.2,0.1-0.2,0.2c0,0,0,0,0,0c0.1,0.3,0.1,0.7,0.1,1.1c0,1.6-1.1,3.3-2.3,4.7h0c-0.4,0-0.8,0.4-0.8,0.8v0.1
		c-1.1,1-2.2,1.7-2.7,1.7c-0.3,0-0.6-0.2-0.6-0.4c0-0.1,0-0.1,0-0.2c0-1.6,2.1-4.5,2.8-5.4c0.1-0.1,0.2-0.2,0.2-0.3
		c0-0.3-0.2-0.5-0.5-0.5c-0.3,0-1.9,2-2.8,3.9c0.1,0.1,0.1,0.1,0.1,0.2c0,0.1-0.1,0.2-0.1,0.3c0,0-0.1,0.1-0.3,0.3
		c-0.2,0.5-0.3,1-0.4,1.5c0,0.8,0.7,1.4,1.5,1.4c0.8,0,2.1-0.7,3.3-1.7c0.4,0.4,1.2,0.7,2,0.7c1.1,0,2.3-0.5,3.5-1.5
		c0.1-0.4,0.2-0.9,0.4-1.3C130.9,41.2,130.8,41.2,130.8,41.3z"/>
	<path class="st0" d="M121.3,41.7c0.1-0.1,0.1-0.2,0.1-0.3c0-0.1,0-0.1-0.1-0.2c-0.1,0.3-0.3,0.5-0.4,0.8
		C121.2,41.8,121.3,41.7,121.3,41.7z"/>
	<path class="st0" d="M139.7,41.1c-0.1,0-0.3,0.2-0.3,0.2s-2.6,3.2-6.1,3.2c-1.1,0-1.8-0.6-1.8-1.6c0-0.2,0-0.3,0.1-0.5
		c2.4-0.6,6.2-2.2,6.2-3.9c0-0.7-0.6-1.2-1.5-1.2c-1.8,0-4.4,1.8-5.4,3.9c0,0,0.1-0.1,0.2-0.1c0.2,0,0.3,0.2,0.3,0.3
		c0,0.1-0.1,0.2-0.1,0.3c-0.2,0.3-0.5,0.5-0.7,0.7c0,0.1,0,0.2,0,0.4c0,1.6,1.3,2.6,2.8,2.6c3.3,0,6.5-3.6,6.5-3.6
		c0.1-0.1,0.1-0.2,0.1-0.3C140,41.3,139.8,41.1,139.7,41.1z M136.4,38.1c0.4,0,0.5,0.3,0.5,0.3c0,1.2-2.9,2.6-5.1,3.1
		C132.6,39.8,134.8,38.1,136.4,38.1L136.4,38.1z"/>
	<path class="st0" d="M131.2,41.7c0.1-0.1,0.1-0.2,0.1-0.3c0-0.2-0.1-0.3-0.3-0.3c-0.1,0-0.1,0-0.2,0.1c-0.2,0.4-0.3,0.8-0.4,1.3
		C130.8,42.2,131,42,131.2,41.7z"/>
	<path class="st2" d="M9.9,14.7c-0.3,0-0.6-0.2-0.6-0.6c0-0.1,0.1-0.3,0.2-0.4l5.6-5.6c0.2-0.2,0.6-0.2,0.8,0c0.2,0.2,0.2,0.6,0,0.8
		l0,0l-5.6,5.6C10.2,14.7,10.1,14.7,9.9,14.7z"/>
	<path class="st2" d="M23.3,5.9H7.5C7.2,5.9,7,5.6,7,5.3c0-0.3,0.2-0.5,0.5-0.5h15.8c0.3,0,0.5,0.3,0.5,0.6
		C23.8,5.7,23.6,5.9,23.3,5.9z"/>
</g>
</svg>
