<svg viewBox="0 0 864 333.47" xmlns="http://www.w3.org/2000/svg"><path d="m239 93.44a2.57 2.57 0 0 1 -2.38-1.57 53.32 53.32 0 0 0 -21.62-25.31c-8-4.81-15.77-6.56-20.34-6.56a2.59 2.59 0 1 1 0-5.17c8.85 0 34.5 6.28 46.68 35a2.57 2.57 0 0 1 -2.34 3.61z" fill="#f26769"/><path d="m194.66 292.73c-24.84 0-48.2-8.58-65.79-24.15s-27.41-36.5-27.41-58.68c0-22 7.93-43.19 23.57-62.92a2.59 2.59 0 0 1 4.06 3.22c-14.9 18.78-22.46 38.87-22.46 59.7 0 20.68 9.11 40.15 25.67 54.8s38.79 22.86 62.36 22.86c48.54 0 88-34.84 88-77.65 0-11.69-2.48-22.51-8-35.07a2.59 2.59 0 1 1 4.73-2.09c5.86 13.25 8.48 24.71 8.48 37.16-.01 45.66-41.82 82.82-93.21 82.82z" fill="#f26769"/><path d="m207.23 149.41a1.93 1.93 0 0 1 -1.85-1.39c-2.82-9.47-6-19.51-9.49-29.85a3.57 3.57 0 0 0 -3.46-2.49 3.57 3.57 0 0 0 -3.46 2.47c-.78 2.27-1.61 4.74-2.48 7.37a1.94 1.94 0 0 1 -3.68-1.23c.88-2.64 1.71-5.12 2.49-7.39a7.44 7.44 0 0 1 7.13-5.1 7.45 7.45 0 0 1 7.13 5.13c3.49 10.38 6.7 20.47 9.52 30a1.93 1.93 0 0 1 -1.3 2.41 1.81 1.81 0 0 1 -.55.07z" fill="#fff"/><path d="m164.12 213.19a1.94 1.94 0 0 1 -1.94-1.94c0-11.92 3.75-31 11.15-56.83a1.94 1.94 0 1 1 3.73 1.07c-7.3 25.44-11 44.2-11 55.76a1.94 1.94 0 0 1 -1.94 1.94z" fill="#fff"/><path d="m168.08 240.09a2.58 2.58 0 0 1 -2.42-1.68 60.79 60.79 0 0 1 -3-11.74 2.59 2.59 0 0 1 5.11-.81 55.2 55.2 0 0 0 2.73 10.74 2.59 2.59 0 0 1 -1.52 3.33 2.55 2.55 0 0 1 -.9.16z" fill="#fff"/><path d="m192.17 258.22h-.07a1.94 1.94 0 0 1 0-3.88h.06c16.62 0 26.19-15.68 26.25-43a1.93 1.93 0 0 1 1.94-1.93 1.94 1.94 0 0 1 1.94 1.94c-.09 42.26-21.04 46.87-30.12 46.87z" fill="#fff"/><path d="m218.4 194.47a1.93 1.93 0 0 1 -1.91-1.6c-.8-4.55-1.83-9.56-3.08-14.9a1.94 1.94 0 1 1 3.78-.88c1.26 5.41 2.31 10.49 3.12 15.11a1.94 1.94 0 0 1 -1.58 2.24 1.84 1.84 0 0 1 -.33.03z" fill="#fff"/><path d="m201.7 175.67a9.45 9.45 0 0 1 0-18.89 1.94 1.94 0 0 1 0 3.88 5.57 5.57 0 0 0 0 11.13 5.57 5.57 0 0 0 5.56-5.55 2 2 0 0 1 1.94-1.94 2 2 0 0 1 1.93 1.95 9.44 9.44 0 0 1 -9.44 9.42z" fill="#fff"/><path d="m179.06 228.16a9.45 9.45 0 0 1 0-18.89 1.94 1.94 0 0 1 0 3.88 5.52 5.52 0 0 0 -3.93 1.62 5.56 5.56 0 0 0 3.92 9.51 5.58 5.58 0 0 0 5.57-5.55 1.94 1.94 0 0 1 1.93-1.94 1.94 1.94 0 0 1 1.93 2 9.45 9.45 0 0 1 -9.42 9.37z" fill="#fff"/><path d="m182.88 198.15a1.94 1.94 0 1 1 0-3.88 5.57 5.57 0 0 0 0-11.14 5.58 5.58 0 0 0 -5.57 5.56 1.93 1.93 0 0 1 -1.94 1.93 1.93 1.93 0 0 1 -1.93-1.94 9.44 9.44 0 0 1 9.44-9.42 9.45 9.45 0 0 1 0 18.89z" fill="#fff"/><path d="m186.74 153.12a1.94 1.94 0 0 1 -1.93-2 1.91 1.91 0 0 1 1.94-1.93 5.56 5.56 0 0 0 3.94-9.49 5.48 5.48 0 0 0 -3.93-1.64 5.57 5.57 0 0 0 -5.57 5.55 1.94 1.94 0 0 1 -3.88 0 9.44 9.44 0 0 1 9.45-9.42 9.45 9.45 0 0 1 0 18.89z" fill="#fff"/><path d="m201.55 239.47a1.94 1.94 0 0 1 0-3.88 5.57 5.57 0 1 0 0-11.13 5.57 5.57 0 0 0 -5.55 5.54 1.94 1.94 0 0 1 -1.93 1.94 1.93 1.93 0 0 1 -1.93-1.94 9.44 9.44 0 0 1 9.44-9.43 9.45 9.45 0 0 1 0 18.89z" fill="#fff"/><path d="m205.36 213.21a9.45 9.45 0 0 1 -9.42-9.47 1.93 1.93 0 0 1 1.94-1.93 1.94 1.94 0 0 1 1.94 1.94 5.57 5.57 0 0 0 5.55 5.58 5.57 5.57 0 0 0 5.57-5.55 5.56 5.56 0 0 0 -5.55-5.58 1.94 1.94 0 1 1 0-3.88 9.45 9.45 0 0 1 0 18.89z" fill="#fff"/><path d="m182.75 254.44a9.44 9.44 0 0 1 -9.42-9.47 1.94 1.94 0 0 1 1.94-1.93 1.93 1.93 0 0 1 1.93 1.94 5.54 5.54 0 0 0 1.63 3.94 5.47 5.47 0 0 0 3.93 1.64 5.57 5.57 0 0 0 0-11.13 1.94 1.94 0 0 1 0-3.88 9.45 9.45 0 0 1 0 18.89z" fill="#fff"/><path d="m104.43 145.39c-.82 0-1.64 0-2.47 0a2.59 2.59 0 0 1 -2.5-2.49c-.54-15.72 3.84-30.14 12.66-41.72a59.45 59.45 0 0 1 5.12-5.87 2.63 2.63 0 0 1 2.16-.74c15 1.91 30-2.8 42.22-13.26a2.58 2.58 0 0 1 4.26 2 69.87 69.87 0 0 1 -.9 10.89c-4.98 30.42-29.67 51.19-60.55 51.19zm15.57-45.59a55.83 55.83 0 0 0 -3.81 4.47c-7.63 10-11.63 22.4-11.64 36 13.65 0 26-4.31 36-12.47a56 56 0 0 0 19.33-34.5q.36-2.25.57-4.56a58.45 58.45 0 0 1 -40.45 11.06z" fill="#12965b"/><path d="m126 100.16c-16.84 0-32.91-7.42-45.25-20.9a2.59 2.59 0 0 1 0-3.49c12.25-13.48 28.36-20.9 45.25-20.9s32.9 7.42 45.24 20.9a2.57 2.57 0 0 1 0 3.49c-12.39 13.48-28.46 20.9-45.24 20.9zm-39.83-22.65c11.1 11.29 25.14 17.49 39.83 17.49s28.67-6.19 39.77-17.48c-11.15-11.29-25.19-17.52-39.77-17.52s-28.73 6.23-39.83 17.51z" fill="#12965b"/><path d="m191.44 78.8a2.59 2.59 0 0 1 -2.33-1.45c-7.62-15.64-20.43-21.19-29.11-21.19a2.59 2.59 0 0 1 0-5.16c16.23 0 28.32 13 33.74 24.1a2.58 2.58 0 0 1 -1.19 3.45 2.52 2.52 0 0 1 -1.11.25z" fill="#12965b"/><path d="m241.89 99a2 2 0 0 1 2-2h32.23c18.54 0 33.88 14.26 33.88 33.6 0 19.64-15.29 34-33.73 34h-27.33v35.4c0 1.05-.9 2-2.4 2h-2.7a2 2 0 0 1 -2-2zm33.88 58.77c14.69 0 27.14-11.1 27.14-27.29 0-15.89-12.45-26.38-27.29-26.38h-26.68v53.67z" fill="#fff"/><path d="m434.38 99a2 2 0 0 1 1.95-2h32.23c18.59 0 33.88 14.24 33.88 33.58 0 19.64-15.29 34-33.73 34h-27.29v35.42a2.12 2.12 0 0 1 -2.39 2h-2.7a2 2 0 0 1 -1.95-2zm33.88 58.77c14.69 0 27.13-11.1 27.13-27.29 0-15.89-12.44-26.38-27.28-26.38h-26.69v53.67z" fill="#fff"/><path d="m508.74 200.16 46.17-103.59a2.08 2.08 0 0 1 1.8-1h.45a1.92 1.92 0 0 1 2 1l45.72 103.59c.3.9.3 1.8-1.35 1.8h-3.9a2.44 2.44 0 0 1 -2.1-1.35l-12.19-27.61h-57.27l-12 27.58a2.44 2.44 0 0 1 -2.07 1.42h-4.19c-1.07 0-1.52-.64-1.07-1.84zm74-33-25.63-59.67h-.3l-26.09 59.67z" fill="#fff"/><path d="m642.76 151-38.23-51.73c-.9-1.2-.3-2.25 1.2-2.25h4.5a2.42 2.42 0 0 1 1.95.9l34.18 46.62 34.78-46.62a2.41 2.41 0 0 1 1.94-.9h4.5c1.5 0 2.1 1 1.2 2.25l-39 51.57v49.16a2 2 0 0 1 -1.94 2c-2 0-5.1.45-5.1-2z" fill="#fff"/><path d="m687.73 200.16 46.18-103.59a2.05 2.05 0 0 1 1.79-1h.45a1.92 1.92 0 0 1 2 1l45.73 103.59c.3.9.3 1.8-1.35 1.8h-3.9a2.44 2.44 0 0 1 -2.1-1.35l-12.19-27.61h-57.27l-12 27.58a2.44 2.44 0 0 1 -2.07 1.42h-4.2c-1.07 0-1.52-.64-1.07-1.84zm74.06-33-25.64-59.67h-.3l-26.08 59.67z" fill="#fff"/><path d="m316.25 200.16 46.17-103.59a2.08 2.08 0 0 1 1.8-1h.45a1.92 1.92 0 0 1 1.95 1l45.72 103.59c.3.9.3 1.8-1.35 1.8h-3.89a2.44 2.44 0 0 1 -2.1-1.35l-12.15-27.61h-57.26l-12 27.58a2.44 2.44 0 0 1 -2.1 1.35h-4.2c-1.04.07-1.49-.57-1.04-1.77zm74.06-33-25.64-59.67h-.3l-26.08 59.67z" fill="#fff"/><path d="m474.11 187.29c0-6.72-4.16-10.62-11.55-10.62-28.36 0-64.78 31.71-77.81 63.83a66.85 66.85 0 0 0 9.13.54c31.18-.04 80.23-30.1 80.23-53.75z" fill="none"/><path d="m722.76 231.23c0-.4-.4-1.61-2.42-1.61-7.39 0-17.6 8.06-21.5 16.39 10.21-2.68 23.92-9.13 23.92-14.78z" fill="none"/><path d="m532.13 231.23c0-.4-.4-1.61-2.42-1.61-7.39 0-17.6 8.06-21.5 16.39 10.21-2.68 23.92-9.13 23.92-14.78z" fill="none"/><g fill="#f26769"><path d="m442.13 274.91a4.62 4.62 0 0 0 -2.29 1.21c-9.27 7-22.71 13.3-35.88 13.3-14.91 0-24.19-9.68-24.19-25.94a57.25 57.25 0 0 1 3.5-19 63.25 63.25 0 0 0 10.08.68c34.4 0 85.47-32.66 85.47-58.19 0-8.74-5.51-14.38-16.26-14.38-30.51 0-69.21 33.59-83.19 67.06-15.46-3.23-28.63-11.69-28.63-27.82 0-17.87 17.61-28.09 33.33-28.09a40.08 40.08 0 0 1 14.64 2.53l-2-4.61a33.49 33.49 0 0 0 -11.8-2.08c-19.76 0-39.24 11.82-39.24 32.65 0 17.61 15.05 27.69 32.25 31.31a60.36 60.36 0 0 0 -3.76 19.89c0 19.36 11.82 30.51 29.7 30.51 13.57 0 28.22-6.58 38.43-15.32.94-.81 1.48-1.48 1.48-2.15a1.54 1.54 0 0 0 -1.64-1.56zm20.43-98.24c7.39 0 11.55 3.9 11.55 10.62 0 23.65-49.05 53.75-80.23 53.75a66.85 66.85 0 0 1 -9.13-.54c13.03-32.12 49.45-63.83 77.81-63.83z"/><path d="m483 258.91c-2.15 0-3.63-1.07-3.63-3.49 0-7.79 11.69-16.13 11.69-21.9 0-1.35-.94-2.15-2.42-2.83-2.69-1.47-7.79-4.57-7.79-5.37 0-2 5.77-6.86 5.77-8.87a3.57 3.57 0 0 0 -2.95-2.82c-3.36 0-5.65 8.6-7.26 11.82-2.15 4.17-9.41 14.25-14 19.35a3 3 0 0 0 -.67 1.35 1.58 1.58 0 0 0 1.48 1.34 2.34 2.34 0 0 0 1.34-.67c5-5.64 10.62-12.9 12.64-15.72.8-1.08 1.21-1.48 1.74-1.48.81 0 2.42 1.07 5.24 3.09 1 .67 1.62 1.21 1.62 1.88 0 4.7-10.89 12.77-10.89 21.1 0 4.17 3.23 6.72 7.26 6.72 5.87 0 13.28-5 19.92-11.37a18 18 0 0 1 1.31-5.5c-6.84 7.46-14.34 13.37-20.4 13.37z"/><path d="m515.2 260c-5 0-8.47-3-8.47-7.66a7.42 7.42 0 0 1 .27-2.42c11.15-2.82 29.16-10.21 29.16-18.28 0-3.36-2.82-5.78-7-5.78-8.59 0-21.62 9.36-25.8 19.69.23-.24.45-.49.67-.74 0 0 .68-.8 1.35-.8a1.71 1.71 0 0 1 1.48 1.48 3 3 0 0 1 -.68 1.34c-1.32 1.44-2.71 2.86-4.13 4.22v.89c0 7.66 5.91 12 13.17 12 9.49 0 18.78-6.33 24.6-11.28a26 26 0 0 1 2.73-6.5c-3.45 3.63-14.13 13.84-27.35 13.84zm14.51-30.37c2 0 2.42 1.21 2.42 1.61 0 5.65-13.71 12.1-23.92 14.78 3.9-8.34 14.11-16.4 21.5-16.4z"/><path d="m506.19 246.82a3 3 0 0 0 .68-1.34 1.71 1.71 0 0 0 -1.48-1.48c-.67 0-1.35.8-1.35.8-.22.25-.44.5-.67.74a18 18 0 0 0 -1.31 5.5c1.42-1.36 2.81-2.78 4.13-4.22z"/><path d="m578 255.56c-3 0-5.37-2-5.37-6.86 0-4.57 2.69-7.79 2.69-8.73a2.31 2.31 0 0 0 -2.15-2.15c-1.48 0-3.77 3.89-7.39 8.19-4.44 5.38-13.44 13.71-19.09 13.71-1.88 0-2.82-1.21-2.82-3.09 0-10.62 16.4-27.68 30.64-27.68 4 0 4.7 2.68 4.7 3.89s-.4 1.88-.4 2.83a1.06 1.06 0 0 0 1.08 1.07c.94 0 2.82-1.88 2.82-4.57 0-3.36-2.69-6.85-9.41-6.85-11.06 0-24.6 10.16-30.72 20.79.75-.81 1.16-1.31 1.16-1.31s.67-.8 1.34-.8a1.58 1.58 0 0 1 1.48 1.48 3 3 0 0 1 -.67 1.34 66.07 66.07 0 0 1 -6 5.79 15.86 15.86 0 0 0 -.55 4c0 4.57 3 7 7 7 6.85 0 16.8-9.14 22-15.19 0 6 3.76 10.62 9 10.62 4.09 0 9-2.73 14.78-8.24a32.33 32.33 0 0 1 .91-5.09c-6.6 7.11-11.34 9.85-15.03 9.85z"/><path d="m545.84 246.82a3 3 0 0 0 .67-1.34 1.58 1.58 0 0 0 -1.51-1.48c-.67 0-1.34.8-1.34.8s-.41.5-1.16 1.31a26 26 0 0 0 -2.73 6.5 66.07 66.07 0 0 0 6.07-5.79z"/><path d="m600.8 256.76a3.58 3.58 0 0 1 -3.9-3.89c0-9.81 6.05-21.37 12.77-30.91 5.37.67 10.88 1.48 14.38 1.48 1.21 0 2.82-1.35 2.82-2.29 0-.54-.27-1.07-1.88-1.07a98 98 0 0 1 -12.9-1.48c6.18-8.2 12.09-14.78 13.84-16.8 1.07-1.34 1.48-1.61 1.48-2.28a2.56 2.56 0 0 0 -2.29-2.42c-.54 0-1.21.4-2 1.34a244 244 0 0 0 -15.73 19.49 73.43 73.43 0 0 0 -8.87-.68c-5.51 0-7.93 2.15-7.93 3.5a1.37 1.37 0 0 0 1.48 1.34c.94 0 1.75-1.34 5.78-1.34 2 0 4.57.27 7.26.54-5.27 7.8-10.08 16.52-12.13 24.43.28-.3.56-.6.84-.92 0 0 .67-.8 1.21-.8a1.71 1.71 0 0 1 1.61 1.48 3 3 0 0 1 -.67 1.34c-1.34 1.47-2.64 2.79-3.9 4a23.22 23.22 0 0 0 -.13 2.33c0 4.7 3.36 7.52 7.66 7.52 6.77 0 14.09-5.22 18.73-9.25a26.37 26.37 0 0 1 1.87-5.8c-2.62 2.68-11.49 11.14-19.4 11.14z"/><path d="m596 246.82a3 3 0 0 0 .67-1.34 1.71 1.71 0 0 0 -1.67-1.48c-.54 0-1.21.8-1.21.8-.28.32-.56.62-.84.92a32.33 32.33 0 0 0 -.91 5.09c1.28-1.2 2.58-2.52 3.96-3.99z"/><path d="m648.77 244c-.53 0-1.21.8-1.21.8s-11.42 12.91-20.42 12.91c-2.56 0-4.44-1.48-4.44-4.31 0-7.52 9.68-19.75 12.9-23.65a3.42 3.42 0 0 0 .81-1.61 1.92 1.92 0 0 0 -2.15-2c-1.74 0-10.13 10.46-14.07 19.49.49-.5.77-.81.77-.81s.67-.8 1.21-.8a1.72 1.72 0 0 1 1.61 1.48 3 3 0 0 1 -.67 1.34 61.42 61.42 0 0 1 -4.79 4.59 11.92 11.92 0 0 0 -.19 2c0 4.84 3.36 7.8 8.07 7.8 8.26 0 18.31-9.16 22-12.86.49-1.23 1.07-2.51 1.7-3.8a1.71 1.71 0 0 0 -1.13-.57z"/><path d="m644.74 215.64c2.15 0 4.44-3.36 4.44-5.78a2.34 2.34 0 0 0 -2.56-2.28c-2.28 0-4.43 3.36-4.43 5.64a2.44 2.44 0 0 0 2.55 2.42z"/><path d="m623.11 246.82a3 3 0 0 0 .67-1.34 1.72 1.72 0 0 0 -1.61-1.48c-.54 0-1.21.8-1.21.8s-.28.31-.77.81a26.37 26.37 0 0 0 -1.87 5.8 61.42 61.42 0 0 0 4.79-4.59z"/><path d="m694 244.8c-6 7-11.69 9.28-16.93 9.28-3.36 0-5.51-1.48-6.05-3.5 7.39-7.12 13.58-16.66 13.58-25.13 0-4.57-3.23-7.12-4.3-7.12a.92.92 0 0 0 -.95.94 25.93 25.93 0 0 1 .68 5c0 7.53-5 15.59-10.89 21.91h-.14a4.43 4.43 0 0 0 -3.9 3.76v.27c-5.24 4.7-10.35 7.79-12.9 7.79a2.49 2.49 0 0 1 -2.82-2.82c0-7.39 10.07-21.1 13.3-25.26a2.94 2.94 0 0 0 .81-1.62 2.34 2.34 0 0 0 -2.29-2.15c-1.56 0-8.81 9.48-13.22 18.42a1.45 1.45 0 0 1 .46.94 3 3 0 0 1 -.68 1.34s-.54.59-1.48 1.52a21 21 0 0 0 -1.74 7.22 6.92 6.92 0 0 0 6.85 6.58c3.76 0 9.81-3.09 15.59-7.93 2 2 5.51 3.23 9.41 3.23 5.25 0 10.79-2.25 16.37-7.26a19.13 19.13 0 0 1 1.78-5.87 3.71 3.71 0 0 0 -.54.46z"/><path d="m649.71 246.82a3 3 0 0 0 .67-1.34 1.43 1.43 0 0 0 -.45-.94c-.63 1.29-1.21 2.57-1.7 3.8.94-.93 1.48-1.52 1.48-1.52z"/><path d="m735.66 244c-.67 0-1.34.8-1.34.8s-12.32 15.2-28.49 15.2c-5 0-8.47-3-8.47-7.66a7.42 7.42 0 0 1 .27-2.42c11.15-2.82 29.16-10.21 29.16-18.28 0-3.36-2.82-5.78-7-5.78-8.25 0-20.58 8.63-25.25 18.46a1.4 1.4 0 0 1 .8-.31 1.7 1.7 0 0 1 1.47 1.48 3 3 0 0 1 -.67 1.34 44.5 44.5 0 0 1 -3.38 3.36 14.68 14.68 0 0 0 -.11 1.75c0 7.66 5.91 12 13.17 12 15.59 0 30.64-17.07 30.64-17.07a3 3 0 0 0 .67-1.34 1.58 1.58 0 0 0 -1.47-1.53zm-15.32-14.38c2 0 2.42 1.21 2.42 1.61 0 5.65-13.71 12.1-23.92 14.78 3.9-8.33 14.16-16.39 21.5-16.39z"/><path d="m696.15 246.82a3 3 0 0 0 .67-1.34 1.7 1.7 0 0 0 -1.47-1.48 1.4 1.4 0 0 0 -.8.31 19.13 19.13 0 0 0 -1.78 5.87 44.5 44.5 0 0 0 3.38-3.36z"/></g><path d="m126.59 120.09a2.59 2.59 0 0 1 -1.83-4.42l26.24-26.27a2.58 2.58 0 1 1 3.65 3.66l-26.27 26.27a2.58 2.58 0 0 1 -1.79.76z" fill="#12965b"/><path d="m189.5 78.8h-74.17a2.59 2.59 0 0 1 0-5.17h74.17a2.59 2.59 0 0 1 0 5.17z" fill="#12965b"/></svg>